<svg width="124" height="24" viewBox="0 0 124 24" fill="none" xmlns="http://www.w3.org/2000/svg">
<path fill-rule="evenodd" clip-rule="evenodd" d="M10.4624 3.26154C10.4624 3.26154 10.4624 9.10769 10.4624 9.16923C10.4624 9.47692 10.1491 9.75385 9.8672 9.75385H8.80216C8.52023 9.78462 8.20698 9.47692 8.20698 9.16923C8.20698 9.10769 8.20698 3.26154 8.20698 3.26154H3.00708C3.00708 3.26154 3.00708 9.32308 3.00708 9.75385C3.00708 11.8769 3.22635 13.2923 6.60942 13.2923H9.30335C10.0551 13.2923 10.431 12.9231 10.431 12.9231V20.5539H10.4937C10.4937 20.5539 12.4671 19.7231 14.096 18.1231C15.2237 17.0154 16.1948 15.6308 16.1948 13.8462C16.1948 13.4769 16.1948 3.29231 16.1948 3.29231H10.4624V3.26154ZM5.57571 14.8C3.63357 14.8 3.00708 13.1077 3.00708 13.1692C3.00708 13.1692 3.00708 13.5077 3.00708 13.8462C3.00708 15.6308 3.85285 16.9846 5.10584 18.1231C6.92267 19.8154 8.8648 20.5539 8.8648 20.5539H8.92745V14.8C8.92745 14.8 8.70818 14.8 8.55156 14.8H5.57571Z" fill="white"/>
<path fill-rule="evenodd" clip-rule="evenodd" d="M0 0C0 0 0 13.8769 0 14.1846C0 20.8 9.02152 23.9385 9.02152 23.9385C9.02152 23.9385 9.33476 24 9.64801 24C9.96126 24 10.2745 23.9385 10.2745 23.9385C10.2745 23.9385 19.296 20.8 19.296 14.1846C19.296 7.72308 19.296 0 19.296 0H0ZM17.7611 13.5385C17.7611 19.9077 10.0239 22.4615 10.0239 22.4615C10.0239 22.4615 9.86728 22.5231 9.64801 22.5231C9.42874 22.5231 9.27212 22.4615 9.27212 22.4615C9.27212 22.4615 1.53491 19.8769 1.53491 13.5385C1.53491 13.0769 1.53491 1.50769 1.53491 1.50769H17.7611C17.7611 1.47692 17.7611 13.1077 17.7611 13.5385Z" fill="white"/>
<path d="M32.6718 11.1384C32.3899 11.2923 31.8573 11.5076 31.4814 11.6C31.1055 11.723 30.7296 11.7538 30.3851 11.7538C29.6959 11.7538 29.1634 11.6 28.8188 11.2923C28.4743 10.9846 28.0357 10.4923 28.0357 9.81534V6.58456H26.0623V9.84611C26.0623 10.4615 26.1562 11.2307 26.3442 11.6923C26.5321 12.123 26.814 12.523 27.1586 12.8307C27.5032 13.1077 27.9104 13.323 28.3803 13.4769C28.8502 13.6307 29.508 13.7846 30.0405 13.7846C31.0116 13.7846 32.0453 13.4769 32.7031 13.1384V17.6923H34.6766V6.61533H32.7031V11.1384H32.6718ZM37.3078 17.6615H44.6065V15.723H39.3126V13.1077H43.9487V11.1692H39.3126V8.5538H44.6065V6.61533H37.3078V17.6615ZM55.8834 6.92303L52.6883 13.1077H52.4063L49.2425 6.92303L49.1799 6.58456H47.2378V17.6615H49.2112V12.123L49.0859 11.5384L49.2112 11.7846L51.8738 16.3384H53.1895L55.8521 11.7846L56.0087 11.5384L55.8521 12.123V17.6615H57.8255V6.58456H55.9147L55.8834 6.92303ZM60.5194 17.6615H62.4929V8.5538H67.129V17.6615H69.1024V6.58456H60.5194V17.6615ZM78.4372 6.89226L73.7072 14.123L73.8011 13.7538V6.58456H71.7963V17.6615H73.7072L73.8011 17.3538C73.8011 17.3538 74.5216 16.3077 74.7409 15.9692C74.9601 15.6307 75.1794 15.2615 75.43 14.923C75.6806 14.5538 75.8999 14.2153 76.1192 13.8769C76.3384 13.5384 76.5577 13.2 76.7457 12.923C76.9336 12.6153 77.0902 12.3692 77.2155 12.1846L78.4998 10.123L78.3745 10.4923L78.4059 17.723H80.3793V6.6461H78.4685L78.4372 6.89226ZM90.3719 7.41533C89.9647 7.10764 89.5261 6.86149 88.9936 6.70764C88.4611 6.55379 87.9286 6.46149 87.3961 6.46149C86.8322 6.46149 86.2997 6.52303 85.7985 6.67687C85.266 6.83072 84.8274 7.0461 84.4202 7.3538C84.013 7.66149 83.6997 8.03072 83.4491 8.49226C83.1986 8.9538 83.1046 9.47688 83.1046 10.0615V14.123C83.1046 14.7384 83.2299 15.2615 83.4491 15.6923C83.6684 16.1538 83.9817 16.523 84.3889 16.8307C84.7648 17.1384 85.2347 17.3846 85.7672 17.5384C86.2997 17.6923 86.8322 17.7846 87.4274 17.7846C88.0226 17.7846 88.5551 17.6923 89.0876 17.5384C89.6201 17.3846 90.0587 17.1384 90.4659 16.8307C90.8418 16.523 91.155 16.1538 91.4056 15.6923C91.6249 15.2307 91.7502 14.7077 91.7502 14.123V10.123C91.7502 9.53841 91.6249 9.01534 91.4056 8.5538C91.0924 8.09226 90.7478 7.72303 90.3719 7.41533ZM89.6828 13.7538C89.6828 14.123 89.6201 14.4307 89.4948 14.7077C89.3695 14.9538 89.1816 15.1692 88.9623 15.3538C88.743 15.5077 88.4924 15.6307 88.2105 15.6923C87.9286 15.7538 87.6467 15.7846 87.3647 15.7846C87.0828 15.7846 86.8009 15.7538 86.519 15.6923C86.237 15.6307 85.9864 15.5077 85.7672 15.3538C85.5479 15.2 85.36 14.9846 85.2346 14.7077C85.1094 14.4615 85.0467 14.123 85.0467 13.7538V10.4923C85.0467 10.123 85.1094 9.81534 85.2346 9.56918C85.36 9.32303 85.5479 9.10765 85.7672 8.9538C85.9864 8.79995 86.237 8.67687 86.519 8.58457C86.8009 8.52303 87.0828 8.46149 87.3647 8.46149C87.6467 8.46149 87.9286 8.49226 88.2105 8.58457C88.4924 8.6461 88.743 8.76918 88.9623 8.9538C89.1816 9.10765 89.3695 9.32303 89.4948 9.56918C89.6201 9.81534 89.6828 10.123 89.6828 10.4923V13.7538ZM100.96 11.1384H96.3236V6.58456H94.3188V17.6615H96.3236V13.1077H100.96V17.6615H102.933V6.58456H100.96V11.1384ZM108.916 6.58456L104.625 17.6615H106.943L107.945 15.0461H111.798L112.894 17.6615H115.181L110.921 6.58456H108.916ZM108.509 13.1077L108.916 11.8153L109.825 9.19995H109.887L110.89 11.8153L111.359 13.1077H108.509ZM114.868 6.58456V8.5538H118.188V17.6615H120.162V8.5538H123.482V6.61533H114.868V6.58456Z" fill="white"/>
</svg>
