<svg width="170" height="103" viewBox="0 0 170 103" fill="none" xmlns="http://www.w3.org/2000/svg">
<g clip-path="url(#clip0_122_43)">
<path d="M136.604 59.1108L131.076 62.3329C131.076 62.3329 132.65 61.8555 131.076 63.6058C130.995 62.7306 127.526 60.7815 125.75 59.0312H125.468L116.551 67.8223C116.349 69.1747 116.632 71.0443 116.632 71.0443C116.632 71.0443 118.004 71.4421 119.779 71.3228L125.629 62.2533C125.629 62.2533 126.799 62.3329 126.436 62.9295L121.473 72.4763C121.756 73.7493 122.845 75.3006 122.845 75.3006C122.845 75.3006 124.54 75.0222 125.912 74.3062L129.26 63.2875L130.148 63.8842L127.768 75.2211C127.768 75.2211 128.938 76.6929 131.036 77.568C133.013 76.7724 134.304 75.2211 134.304 75.2211L131.964 63.924L132.851 63.3273L136.2 74.3459C137.693 75.0222 139.267 75.3404 139.267 75.3404C139.267 75.3404 140.437 73.8686 140.638 72.5161L135.676 62.9693C135.393 62.3726 136.483 62.2931 136.483 62.2931L142.333 71.3626C144.108 71.4421 145.48 71.0841 145.48 71.0841C145.48 71.0841 145.762 69.2145 145.561 67.8621L136.604 59.1108Z" fill="#FAC520"/>
<path d="M143.261 21.162H146.408L147.215 22.0372L150.08 19.4913L148.506 17.7411H145.52L147.013 16.2693C147.013 16.2693 139.105 16.2693 137.693 16.2693C136.281 16.2693 133.134 16.2693 133.457 14.519C132.367 16.5875 133.739 17.94 135.837 18.1389C135.232 18.8151 133.174 19.6902 132.69 18.7356C132.609 20.088 134.062 20.2869 134.062 20.2869C134.062 20.2869 132.367 22.2361 131.076 24.4636C129.785 22.2361 128.09 20.2869 128.09 20.2869C128.09 20.2869 129.583 20.088 129.462 18.7356C128.978 19.73 126.88 18.8151 126.315 18.1389C128.494 17.94 129.785 16.5875 128.696 14.519C128.897 16.1897 125.831 16.2693 124.338 16.2693C122.966 16.2693 115.018 16.2693 115.018 16.2693L116.511 17.7411H113.525L111.952 19.4913L114.816 22.0372L115.502 21.162H118.649C118.73 21.2416 118.851 21.3609 118.932 21.3609C119.012 21.4405 119.012 21.4405 119.133 21.5598C116.672 21.7587 113.888 24.3045 112.88 22.4349C113.485 24.6625 115.865 24.3841 117.237 23.509C117.237 23.509 117.035 24.1852 117.519 24.6625C117.6 23.3101 120.989 23.7874 120.989 23.7874C122.765 25.7366 123.37 28.6802 122.28 31.1862L124.378 30.0326C124.459 30.6293 124.58 31.5044 124.459 32.3795H125.064C125.064 31.7033 125.064 30.9077 124.984 30.0326L125.871 28.7597C126.275 30.1122 126.356 31.3851 126.356 32.3795H127.929C127.929 31.226 127.727 29.9531 127.647 29.3564L128.454 28.3619C128.454 28.3619 129.059 30.2315 129.139 32.2602H130.632C130.552 30.9873 130.35 29.8337 130.148 29.2371L130.955 29.0382L131.762 29.2371C131.681 29.8337 131.48 30.9873 131.278 32.2602H132.771C132.851 30.1917 133.457 28.3619 133.457 28.3619L134.264 29.3564C134.183 29.8337 134.062 31.226 133.981 32.3795H135.555C135.555 31.3851 135.635 30.152 136.039 28.7597L136.926 30.0326C136.846 30.9077 136.846 31.7033 136.846 32.3795H137.451C137.37 31.5044 137.451 30.6293 137.532 30.0326L139.63 31.1862C138.54 28.6404 139.146 25.7366 140.921 23.7874C140.921 23.7874 144.27 23.3896 144.391 24.6625C144.996 24.1852 144.673 23.509 144.673 23.509C146.045 24.3841 148.425 24.6625 149.031 22.4349C148.022 24.3045 145.157 21.7587 142.777 21.5598C142.857 21.4803 142.857 21.4803 142.978 21.3609C143.059 21.3609 143.14 21.2814 143.261 21.162ZM118.488 18.8151L117.479 17.94H121.554L118.488 18.8151ZM140.477 17.94H144.552L143.543 18.8151L140.477 17.94Z" fill="#FAC520"/>
<path d="M166.097 35.6017C166.097 35.6017 169.567 33.4536 169.083 28.9587C169.083 28.9587 163.919 31.9023 155.93 32.7774L156.132 31.1067C162.749 29.7542 167.631 26.5322 167.631 26.5322C167.631 26.5322 170.213 22.7134 167.913 18.4174C167.913 18.4174 163.676 24.0659 155.849 27.6857V27.6062C155.768 27.0095 155.647 26.4526 155.567 25.9355C155.97 25.7366 162.587 21.7588 165.25 16.866C165.25 16.866 166.138 11.7744 162.184 8.75122C160.691 14.3202 157.342 19.0141 154.155 22.3952C153.549 21.3212 152.985 20.8439 152.985 20.8439C152.379 23.3897 150.604 26.2139 147.457 28.362C148.264 29.2371 148.748 30.3111 148.829 31.4647C149.111 34.5674 146.852 36.1585 143.664 36.437C142.978 36.5166 142.373 37.7895 141.687 37.5906C141.687 37.5906 142.172 45.8645 142.494 45.7849C143.987 45.586 146.448 44.7109 147.054 44.3131C148.224 47.5352 149.837 50.5583 149.837 50.5583C149.837 50.5583 152.904 51.3539 155.284 49.6832C155.284 49.6832 152.016 46.5805 149.434 42.9607L150.322 42.2844C152.904 45.3076 156.051 47.7341 156.051 47.7341C156.051 47.7341 159.722 48.0125 161.296 45.1882C161.296 45.1882 156.656 43.438 152.178 40.4148L152.985 39.4204C157.342 41.7673 161.699 42.8413 161.699 42.8413C161.699 42.8413 165.654 42.364 166.541 37.869C166.541 37.869 160.893 38.3464 154.679 36.795L155.284 35.4425C160.449 36.795 166.097 35.6017 166.097 35.6017Z" fill="#FAC520"/>
<path d="M145.52 15.3145C147.901 15.3145 148.385 12.9676 148.183 11.814C148.103 11.4163 147.982 11.0185 147.982 10.74C147.982 10.5411 147.982 10.4616 148.062 10.3422C148.466 10.0638 149.434 10.1433 150.443 10.9389C151.048 11.4163 151.532 12.0925 151.25 12.6096C151.048 12.8881 150.766 13.2063 150.362 13.4052C149.959 13.6836 149.555 14.0019 149.353 14.4792C148.95 15.2748 149.757 17.5819 151.815 18.2979C152.218 18.3775 151.895 17.6217 152.218 17.1443C152.621 16.5477 153.59 16.3488 153.106 16.2692C152.823 16.1897 151.936 15.7919 151.936 15.2748C151.855 14.7974 152.621 14.1212 153.227 13.7234L153.428 13.5245C154.114 13.0472 154.235 12.5301 154.114 12.2516C154.114 11.9732 153.913 11.5754 153.307 11.2571C153.307 11.2571 153.227 11.2571 153.227 11.1776C153.227 11.1776 153.146 11.098 152.621 10.8991C151.613 10.5014 150.927 9.74556 150.362 9.02955C150.281 8.95 150.16 8.83066 150.08 8.63177C149.595 8.15443 149.071 8.35332 148.506 8.43288C148.224 8.51243 147.82 8.71133 147.336 8.71133C147.255 8.71133 146.731 8.79088 146.731 8.79088C146.529 8.79088 146.327 8.87044 146.247 8.98977C146.045 9.18867 145.964 9.58645 145.964 9.98423C146.045 10.4616 146.247 11.0583 146.448 11.6549C146.892 12.9676 146.892 15.0361 145.52 15.3145Z" fill="#FAC520"/>
<path d="M108.522 13.4451L108.724 13.644C109.329 14.0418 110.096 14.718 110.015 15.1954C109.934 15.6727 109.006 16.1898 108.845 16.1898C108.441 16.2694 109.329 16.4683 109.733 17.065C110.015 17.5423 109.733 18.3379 110.136 18.2185C112.113 17.5423 112.92 15.1158 112.597 14.3998C112.395 13.9225 111.992 13.6042 111.589 13.3258C111.185 13.0474 110.903 12.8485 110.701 12.5302C110.418 12.0529 110.903 11.3767 111.508 10.8595C112.516 10.064 113.485 9.98441 113.888 10.2629C113.969 10.3424 113.969 10.4618 113.969 10.6606C113.969 10.9391 113.888 11.3369 113.767 11.7347C113.566 12.8882 114.05 15.2352 116.43 15.2352C115.058 14.9567 115.058 13.0076 115.543 11.7347C115.744 11.138 115.946 10.5811 116.027 10.064C116.027 9.66619 115.946 9.2684 115.744 9.06951C115.664 8.98995 115.462 8.87062 115.26 8.87062C115.26 8.87062 114.776 8.79106 114.655 8.79106C114.171 8.79106 113.767 8.59217 113.485 8.51261C113.001 8.31372 112.395 8.11483 111.911 8.7115C111.831 8.79106 111.71 8.9104 111.629 9.10929C111.024 9.70596 110.338 10.4618 109.369 10.9789C108.966 11.1778 108.764 11.2573 108.764 11.2573C108.684 11.2573 108.684 11.2573 108.562 11.3369C107.957 11.6153 107.756 12.0131 107.756 12.3313C107.836 12.4905 107.917 12.8882 108.522 13.4451Z" fill="#FAC520"/>
<path d="M129.987 11.0186H127.808C127.606 12.8881 126.799 14.1213 125.629 14.8373C127.727 14.8373 129.381 12.9677 129.987 11.0186Z" fill="#FAC520"/>
<path d="M134.223 11.0186H132.044C132.65 12.9677 134.304 14.7179 136.483 14.8373C135.232 14.1611 134.425 12.9677 134.223 11.0186Z" fill="#FAC520"/>
<path d="M130.995 9.74567H134.263C134.667 9.26832 135.837 7.59763 135.837 6.04627C135.837 5.37004 135.555 4.77336 134.949 4.29602C134.667 4.09713 133.941 3.61979 132.69 3.4209L131.116 6.16561L129.422 3.4209C128.131 3.61979 127.445 4.09713 127.162 4.29602C126.557 4.77336 126.275 5.37004 126.275 6.04627C126.275 7.59763 127.445 9.26832 127.848 9.74567H130.995Z" fill="#FAC520"/>
<path d="M132.569 0.875125C132.569 0.875125 131.964 0 131.076 0C130.067 0 129.583 0.875125 129.583 0.875125L131.076 3.61984L132.569 0.875125Z" fill="#FAC520"/>
<path d="M140.961 14.9168H143.624C143.906 14.5191 144.915 13.1666 144.915 11.8937C144.915 11.297 144.713 10.8992 144.108 10.5412C143.906 10.3423 143.301 9.94455 142.212 9.86499L140.84 12.0926L139.468 9.86499C138.379 10.0639 137.774 10.3423 137.572 10.5412C137.088 10.939 136.765 11.4163 136.765 11.8937C136.765 13.1666 137.774 14.5191 138.056 14.9168H140.961Z" fill="#FAC520"/>
<path d="M142.051 7.99536C142.051 7.99536 141.647 7.39868 140.961 7.39868C140.275 7.39868 139.872 7.99536 139.872 7.99536L140.961 10.0638L142.051 7.99536Z" fill="#FAC520"/>
<path d="M122.159 7.99536C122.159 7.99536 121.756 7.39868 121.07 7.39868C120.384 7.39868 119.981 7.99536 119.981 7.99536L121.07 10.0638L122.159 7.99536Z" fill="#FAC520"/>
<path d="M120.989 14.9168H123.652C123.935 14.5191 124.943 13.1666 124.943 11.8937C124.943 11.297 124.742 10.8992 124.136 10.5412C123.935 10.3423 123.329 9.94455 122.24 9.86499L120.868 12.0926L119.496 9.86499C118.407 10.0639 117.802 10.3423 117.6 10.5412C117.116 10.939 116.793 11.4163 116.793 11.8937C116.793 13.2462 117.802 14.5191 118.084 14.9168H120.989Z" fill="#FAC520"/>
<path d="M95.8531 35.6017C95.8531 35.6017 101.502 36.6757 106.828 35.6813L107.433 37.0337C101.179 38.5851 95.5707 38.1078 95.5707 38.1078C96.4583 42.6027 100.412 43.0801 100.412 43.0801C100.412 43.0801 104.649 41.9265 109.127 39.6591L109.934 40.6536C105.375 43.5972 100.735 45.3474 100.735 45.3474C102.309 48.291 105.98 47.8932 105.98 47.8932C105.98 47.8932 109.127 45.4668 111.71 42.4436L112.597 43.1198C110.136 46.7397 106.747 49.8424 106.747 49.8424C109.127 51.5131 112.194 50.7175 112.194 50.7175C112.194 50.7175 113.767 47.7739 114.978 44.4723C115.583 44.8701 118.044 45.7452 119.537 45.9441C119.819 45.9441 120.344 37.7497 120.344 37.7497C119.739 37.8293 119.053 36.6757 118.367 36.5962C115.22 36.3177 112.839 34.7266 113.202 31.6239C113.283 30.4703 113.808 29.3963 114.574 28.5212C111.427 26.3731 109.733 23.5489 109.047 21.003C109.047 21.003 108.441 21.4804 107.877 22.5544C104.729 19.1335 101.26 14.4396 99.8475 8.9104C95.8935 11.9336 96.7811 17.0252 96.7811 17.0252C99.444 21.9179 106.101 25.8958 106.464 26.0947C106.384 26.572 106.263 27.1687 106.182 27.7654V27.8449C98.3143 24.1853 94.0778 18.5368 94.0778 18.5368C91.8991 22.8328 94.3603 26.6516 94.3603 26.6516C94.3603 26.6516 99.2019 29.8736 105.859 31.2261L106.061 32.8968C98.0319 32.0217 92.9078 29.0781 92.9078 29.0781C92.3833 33.4537 95.8531 35.6017 95.8531 35.6017Z" fill="#FAC520"/>
<path d="M110.903 64.9979C111.588 64.4013 114.776 61.7759 117.439 61.577C116.349 56.6047 118.811 54.8545 120.788 57.082C121.473 57.8776 121.796 58.7527 121.877 59.429H124.338L124.419 49.5639L119.375 49.4844C119.577 49.9617 119.577 50.2799 119.577 50.2799C115.421 50.2004 113.727 51.4335 113.243 53.2235V53.3031C113.243 53.3827 113.243 53.3827 113.243 53.502C113.243 53.5815 113.243 53.7009 113.162 53.7804V53.86C112.96 56.008 113.848 59.1107 112.557 59.2301C113.162 59.6279 113.929 59.429 114.453 58.8323C114.857 59.5085 115.26 60.1848 115.542 60.5825C114.534 61.0599 113.162 61.3781 112.194 61.3781C110.62 61.3781 109.329 60.9008 107.957 59.2301C107.07 58.1561 106.182 57.8776 105.294 59.2301C103.317 57.2809 101.744 55.7296 101.744 55.7296C101.744 55.5307 101.663 55.2522 101.542 55.0533C103.64 52.9053 101.542 49.8026 99.6457 49.6833C98.9598 49.6833 100.332 51.8313 99.1616 52.2291C98.5564 52.428 98.1529 51.354 98.9598 50.8766C97.9511 50.6777 96.7811 51.6722 97.3863 52.2291C96.7811 51.6324 95.8128 52.7064 96.0145 53.7804C96.4987 52.9849 97.5073 53.3827 97.3863 53.9793C96.9828 55.1329 94.8041 53.7804 94.8041 54.4567C94.8848 56.3263 97.9511 58.355 100.251 56.3263C100.453 56.5252 100.654 56.5252 100.937 56.5252C100.937 56.5252 102.43 57.9969 104.286 59.9461C103.801 60.3439 103.398 61.2986 104.366 62.0941C103.882 63.7648 105.254 65.3957 109.692 65.5151C111.467 67.3846 112.839 68.7371 112.96 68.8167C113.444 69.294 113.767 69.4133 113.969 69.294C114.171 69.294 114.251 69.2145 114.453 69.0951C114.534 69.0156 114.655 68.8167 114.736 68.6178C114.736 68.4189 114.655 68.0211 114.251 67.6233C113.767 67.7029 112.557 66.5493 110.903 64.9979Z" fill="#FAC520"/>
<path d="M157.907 57.9571L157.1 59.3096L155.93 61.4576L154.76 59.3096L153.953 57.9571C152.379 58.6334 151.169 60.1847 151.088 61.9748C149.999 61.4974 147.739 60.8212 146.65 60.503C146.65 60.503 147.134 59.8267 147.659 58.7527C148.143 59.3494 148.95 59.5483 149.555 59.1505C148.264 58.9516 149.152 55.8489 148.95 53.7804V53.7009C148.95 53.6213 148.95 53.502 148.869 53.4224C148.869 53.3428 148.869 53.3428 148.869 53.2235V53.144C148.385 51.3937 146.69 50.1208 142.535 50.2004C142.535 50.2004 142.535 49.9219 142.736 49.4048L137.572 49.4843L137.774 59.3494H140.235C140.316 58.5538 140.638 57.798 141.324 57.0025C143.301 54.7749 145.762 56.6047 144.673 61.4974C149.031 62.0941 151.008 64.9184 151.693 65.9924C152.864 67.9415 155.849 69.294 156.939 67.2653C158.109 67.862 160.812 66.5891 160.287 64.5206C160.57 63.8443 160.893 63.1681 160.893 62.3725C160.772 60.3836 159.561 58.7527 157.907 57.9571Z" fill="#FAC520"/>
<path d="M157.584 55.7296C157.584 55.7296 156.979 54.8545 156.011 54.8545C155.002 54.8545 154.437 55.7296 154.437 55.7296L156.011 58.6732L157.584 55.7296Z" fill="#FAC520"/>
<path d="M95.8531 51.7915C96.3433 51.7915 96.7408 51.3997 96.7408 50.9164C96.7408 50.4331 96.3433 50.0413 95.8531 50.0413C95.3629 50.0413 94.9655 50.4331 94.9655 50.9164C94.9655 51.3997 95.3629 51.7915 95.8531 51.7915Z" fill="#FAC520"/>
<path d="M95.7321 52.6667C96.1109 52.6667 96.418 52.3639 96.418 51.9904C96.418 51.617 96.1109 51.3142 95.7321 51.3142C95.3533 51.3142 95.0462 51.617 95.0462 51.9904C95.0462 52.3639 95.3533 52.6667 95.7321 52.6667Z" fill="#FAC520"/>
<path d="M96.9425 51.5927C97.3213 51.5927 97.6284 51.2899 97.6284 50.9165C97.6284 50.543 97.3213 50.2402 96.9425 50.2402C96.5637 50.2402 96.2566 50.543 96.2566 50.9165C96.2566 51.2899 96.5637 51.5927 96.9425 51.5927Z" fill="#FAC520"/>
<path d="M143.947 38.9431C133.174 40.6934 120.788 50.5584 118.004 59.3494C118.811 60.9008 120.384 61.219 122.845 61.219H125.428C127.687 61.219 129.503 61.8953 130.673 63.1682C131.843 61.8953 133.658 61.219 135.918 61.219H138.5C142.172 61.219 143.947 60.4235 143.947 55.8489C143.947 55.8092 143.947 38.9431 143.947 38.9431Z" fill="#E52327"/>
<path d="M132.569 28.4814C125.629 29.635 119.497 33.1753 117.318 39.2216V55.8888C117.318 56.1672 117.318 56.3661 117.318 56.6843V56.7639C117.398 57.8379 117.6 58.713 117.923 59.3097C120.707 50.638 132.851 40.8525 143.543 38.9034C143.624 38.9034 143.745 38.9034 143.826 38.8238V29.9532C140.275 29.0781 136.402 28.6803 132.569 28.4814Z" fill="#154A9B"/>
<path d="M117.318 43.9147C120.465 35.3226 129.099 30.1514 139.105 28.6C131.762 28.4011 124.459 29.0773 117.318 30.6685V43.9147Z" fill="white"/>
<path d="M144.834 34.1299V36.3575C146.004 36.1586 147.618 35.9597 149.595 35.8801L146.731 34.4083C146.61 34.5277 145.319 34.2492 144.834 34.1299Z" fill="#B42527"/>
<path d="M117.116 34.1299V36.3575C115.946 36.1586 114.332 35.9597 112.355 35.8801L115.22 34.4083C115.341 34.5277 116.632 34.2492 117.116 34.1299Z" fill="#B42527"/>
<path d="M144.915 28.2825H117.116V55.0136C117.116 60.2643 119.698 61.3383 123.652 61.3383H126.113C128.494 61.3383 130.189 62.2135 130.874 63.9637L131.076 64.3615L131.278 63.9637C132.085 62.2135 133.658 61.3383 136.039 61.3383H138.5C142.373 61.3383 145.036 60.2643 145.036 55.0136L144.915 28.2825ZM143.826 54.934C143.826 59.5085 141.728 60.3836 138.177 60.3836H135.716C133.739 60.3836 132.246 60.9803 131.157 62.0543L130.753 62.4521L130.35 62.0543C129.261 60.9803 127.768 60.3836 125.791 60.3836H123.33C119.779 60.3836 117.681 59.5085 117.681 54.934V29.2769H143.664V54.934H143.826Z" fill="#FAC520"/>
<path d="M123.652 40.5739C123.935 40.7728 124.056 42.1253 124.136 42.722C124.136 42.722 123.733 42.8015 123.854 43.0004C123.854 43.08 123.935 43.3982 124.056 43.4778C124.056 43.5573 123.975 43.7562 123.975 43.7562C124.056 44.0347 124.056 44.3529 124.257 44.5518C124.338 44.6313 124.459 44.6313 124.459 44.7507C124.943 46.6203 126.033 46.6203 126.033 46.6203V47.4158C125.629 48.0125 124.863 48.9672 125.145 49.1661C125.347 49.365 125.428 49.365 125.428 49.4445C125.428 49.4445 125.347 49.6434 125.145 49.723C125.064 49.8025 125.064 50.1208 125.226 50.2003C125.428 50.2799 125.71 50.2799 126.033 50.2799L125.75 57.3206C125.75 57.4002 125.67 57.5991 125.549 57.4002C125.347 57.2013 125.064 56.9229 124.742 56.4057C124.459 56.008 124.459 56.2069 124.338 56.4057C124.257 56.6842 124.338 57.2013 124.419 57.4002C124.5 57.6787 125.024 58.0764 125.589 58.2753C126.073 58.4742 126.073 58.1958 126.073 57.2809C126.073 56.8831 126.275 53.1837 126.477 49.9616C126.557 49.9616 126.557 49.9616 126.678 49.8821C127.162 49.6036 127.768 48.8876 128.171 48.3307C128.373 48.8081 128.373 49.8821 128.575 50.081C128.857 50.4788 128.978 50.2799 129.261 51.0754C129.341 51.2743 129.946 51.4732 130.269 51.9506C130.874 52.945 132.851 54.0986 133.537 54.377C133.739 54.4566 134.021 54.2975 134.143 54.5759C134.344 54.9737 134.344 54.9737 134.546 55.0533C134.748 55.1328 134.748 55.7295 135.151 55.9284C135.555 56.2069 135.958 56.008 136.241 56.2069C136.523 56.2864 136.926 56.8035 136.926 56.8035C137.007 56.8035 136.725 56.3262 136.523 56.008C136.442 55.9284 136.523 55.7295 136.523 55.5306C136.725 54.5362 135.514 54.0588 135.434 53.661C135.151 52.9848 135.03 53.3826 134.828 52.9848C134.223 52.1097 133.739 51.1152 132.932 50.5583C132.73 50.4788 132.529 50.4788 132.529 50.3594C132.448 50.2799 132.448 49.9616 132.125 49.4843C132.044 49.4047 132.206 49.007 132.125 48.6887C132.044 48.6092 131.923 48.4103 131.923 48.0921C131.923 47.2169 132.004 47.8136 132.206 48.1716C132.488 48.7683 132.892 49.5241 133.093 49.723C133.174 49.8025 133.376 49.723 133.497 49.8025C133.981 50.5981 134.586 51.155 134.869 51.3539C134.949 51.4334 135.07 51.8312 135.555 52.5075C136.442 53.7804 137.451 54.4566 137.733 55.1328C138.016 55.8091 138.218 55.7295 138.54 56.008C138.823 56.4057 139.146 56.6842 139.428 56.8035C139.71 56.8035 139.831 56.724 140.033 56.724C140.316 56.724 140.921 57.2013 140.921 57.2013C141.002 57.2013 140.517 56.5251 140.517 56.3262C140.517 56.0477 140.719 55.8488 140.598 55.5306C140.396 55.1328 139.912 55.0533 139.428 54.4566C139.146 54.1782 139.226 53.8599 139.146 53.661C138.742 52.7859 138.54 51.5926 137.774 50.5583C137.491 50.1605 137.29 50.081 137.29 49.7627C137.209 48.9672 136.805 48.4898 136.805 48.2909C136.805 48.0921 137.088 47.6943 137.007 47.4954C136.725 46.8191 135.998 45.5462 135.514 43.6767C135.434 43.1993 134.627 42.8811 134.627 42.5231C134.627 42.1253 134.021 41.8468 134.021 41.8468C134.223 40.8524 134.102 40.375 134.021 40.0966C133.82 39.301 132.851 38.5452 131.359 37.4712C131.439 37.0734 131.641 35.9994 131.56 35.8005C131.56 35.721 131.48 35.721 131.359 35.5221C131.278 35.1243 131.157 34.7265 131.076 34.647C130.874 34.4481 130.794 34.5674 130.592 34.5674C130.39 34.5674 130.188 34.5674 129.987 34.4878C129.583 34.2889 129.18 34.2889 128.696 34.9652C128.615 35.0447 128.494 35.0447 128.413 35.2436C128.333 35.4425 128.211 35.721 128.211 36.1188C128.131 36.5961 128.211 36.7154 128.211 36.795C127.606 36.795 126.84 36.795 126.638 36.9939C124.338 38.2668 123.37 40.375 123.652 40.5739ZM126.033 42.8413C126.033 42.4435 126.113 41.6877 126.113 41.6877C126.113 42.364 127.001 44.7904 127.001 44.7904C127.001 44.7904 126.194 43.7164 126.194 43.6369C126.113 43.5573 126.194 43.1595 126.113 43.0402C126.033 42.9209 126.033 42.9209 126.033 42.8413Z" fill="white"/>
<path d="M149.474 35.9199C137.612 31.5443 124.257 31.5443 112.355 35.9199C113.525 32.2205 112.355 29.3962 112.355 29.3962C124.136 25.0206 137.572 25.0206 149.474 29.3962C149.474 29.3564 147.982 32.0216 149.474 35.9199Z" fill="#E61E25"/>
<path d="M116.228 31.5044C116.511 30.9077 116.713 30.3508 117.035 29.8337V29.7542H116.955C116.874 29.7542 116.672 29.8337 116.551 29.8337C116.551 29.8337 116.551 29.8337 116.47 29.9133C116.269 30.311 116.188 30.7088 115.986 31.0668L115.502 30.2713C115.502 30.2713 115.421 30.1917 115.421 30.2713C115.341 30.2713 115.139 30.3508 115.018 30.3508C115.018 30.3508 114.937 30.3508 114.937 30.4304V30.6293C115.22 31.0271 115.421 31.4248 115.744 31.7828C115.462 32.3795 115.26 33.0558 114.937 33.6524V33.732C114.937 33.732 114.937 33.732 115.018 33.732C115.099 33.732 115.3 33.6524 115.421 33.6524C115.421 33.6524 115.421 33.6524 115.502 33.5729C115.704 33.1751 115.906 32.6978 115.986 32.3C116.188 32.5784 116.39 32.8966 116.47 33.1751C116.47 33.1751 116.551 33.2547 116.551 33.1751C116.632 33.1751 116.834 33.0955 116.955 33.0955C116.955 33.0955 116.955 33.0955 117.035 33.016V32.9364C116.713 32.3795 116.43 32.0215 116.228 31.5044Z" fill="white"/>
<path d="M119.214 29.4757C119.133 29.3962 119.012 29.3962 118.811 29.2769C118.73 29.2769 118.528 29.2769 118.326 29.2769C118.125 29.2769 117.923 29.3564 117.842 29.4757C117.762 29.5553 117.641 29.6746 117.56 29.7542C117.479 29.8338 117.479 29.9531 117.358 30.152C117.358 30.2315 117.277 30.4304 117.277 30.5498V31.8227C117.277 31.9022 117.277 32.1011 117.358 32.2205C117.358 32.3 117.439 32.4193 117.56 32.4989C117.641 32.5785 117.762 32.5785 117.963 32.6978H118.044C118.125 32.6978 118.246 32.6978 118.326 32.6182C118.528 32.6182 118.609 32.5387 118.73 32.4193C118.811 32.3398 118.932 32.2205 119.012 32.1409C119.093 32.0613 119.214 31.942 119.214 31.7431C119.295 31.6636 119.295 31.4647 119.295 31.3453V30.0724C119.295 29.9929 119.295 29.794 119.214 29.6746C119.295 29.5553 119.214 29.4757 119.214 29.4757ZM118.811 30.152V31.5044C118.811 31.584 118.811 31.584 118.811 31.7033C118.811 31.7829 118.73 31.7829 118.73 31.9022C118.73 32.0216 118.649 31.9818 118.528 31.9818C118.447 31.9818 118.447 32.0613 118.326 32.0613C118.246 32.0613 118.125 32.0613 118.125 32.0613C118.044 32.0613 118.044 32.0613 118.044 31.9818L117.963 31.9022C117.963 31.8227 117.963 31.8227 117.963 31.7033V30.4304C117.963 30.3509 117.963 30.3509 117.963 30.2315C117.963 30.152 117.963 30.152 118.044 30.0326C118.044 29.9531 118.125 29.9531 118.246 29.8338C118.326 29.7542 118.326 29.7542 118.447 29.7542C118.528 29.7542 118.528 29.7542 118.528 29.7542H118.609C118.69 29.7542 118.69 29.7542 118.69 29.8338L118.77 29.9133C118.811 30.0326 118.811 30.152 118.811 30.152Z" fill="white"/>
<path d="M121.756 30.3508C121.756 30.2712 121.675 30.2712 121.554 30.2712C121.635 30.2712 121.635 30.1917 121.635 30.0724C121.716 29.9928 121.716 29.7939 121.837 29.595L122.119 28.6006V28.521H122.038C121.958 28.521 121.756 28.521 121.635 28.6006C121.635 28.6006 121.554 28.6006 121.554 28.6801L121.272 29.6746C121.272 29.7541 121.191 29.8735 121.191 29.953C121.191 30.0326 121.11 30.0326 121.11 30.0326L121.03 30.1121C120.949 30.1121 120.949 30.1121 120.949 30.1121C120.868 30.1121 120.747 30.1121 120.747 30.1917V28.9188V28.8392H120.666C120.586 28.8392 120.384 28.9188 120.263 28.9188C120.263 28.9188 120.182 28.9188 120.182 28.9983V32.1011V32.1806C120.182 32.1806 120.182 32.1806 120.263 32.1806C120.344 32.1806 120.545 32.1011 120.666 32.1011L120.747 32.0215V30.669C120.828 30.669 120.949 30.669 121.03 30.5895C121.11 30.5895 121.11 30.5895 121.231 30.5895H121.312L121.393 30.669C121.393 30.669 121.473 30.7486 121.473 30.8679L121.756 31.7431L121.837 31.8226C121.917 31.8226 122.119 31.7431 122.24 31.7431C122.24 31.7431 122.24 31.7431 122.321 31.7431V31.6635L122.038 30.669C121.877 30.5497 121.756 30.4304 121.756 30.3508Z" fill="white"/>
<path d="M124.338 29.9531C124.338 29.8735 124.257 29.8735 124.136 29.7542C124.217 29.7542 124.217 29.6746 124.217 29.5553C124.298 29.4757 124.298 29.2769 124.419 29.1575L124.701 28.1631V28.0835H124.621C124.54 28.0835 124.338 28.0835 124.217 28.0835C124.217 28.0835 124.136 28.0835 124.136 28.1631L123.854 29.1575C123.854 29.2371 123.773 29.3564 123.773 29.3564C123.773 29.436 123.693 29.436 123.693 29.436L123.612 29.5155C123.531 29.5155 123.531 29.5155 123.531 29.5155C123.45 29.5155 123.329 29.5155 123.249 29.5155V28.2426V28.1631C123.249 28.1631 123.249 28.1631 123.168 28.1631C123.087 28.1631 122.886 28.1631 122.765 28.2426C122.765 28.2426 122.684 28.2426 122.684 28.3222V31.4249V31.5044C122.684 31.5044 122.684 31.5044 122.765 31.5044C122.845 31.5044 123.047 31.5044 123.168 31.4249C123.168 31.4249 123.249 31.4249 123.249 31.3453V29.9929H123.531H123.612H123.693L123.773 30.0724C123.773 30.152 123.854 30.152 123.854 30.2713L124.136 31.1464L124.217 31.226C124.298 31.226 124.5 31.226 124.621 31.1464H124.701V31.0669L124.419 30.0724C124.54 30.152 124.459 30.0326 124.338 29.9531Z" fill="white"/>
<path d="M127.122 27.9243C126.517 27.9243 125.952 28.0039 125.347 28.1232C125.347 28.1232 125.266 28.1232 125.266 28.2028V31.3055V31.4248C125.266 31.4248 125.266 31.4248 125.347 31.4248C125.952 31.3453 126.517 31.3453 127.122 31.2259C127.122 31.2259 127.203 31.2259 127.203 31.1464V30.7486V30.6292C127.203 30.6292 127.203 30.6292 127.122 30.6292C126.719 30.6292 126.234 30.7088 125.831 30.7088V29.8337C126.234 29.8337 126.517 29.7541 126.92 29.7541C126.92 29.7541 127.001 29.7541 127.001 29.6746V29.3961V29.3166C127.001 29.3166 127.001 29.3166 126.92 29.3166C126.517 29.3166 126.234 29.3961 125.831 29.3961V28.521C126.234 28.521 126.719 28.4414 127.122 28.4414C127.122 28.4414 127.203 28.4414 127.203 28.3619L127.122 27.9243C127.203 27.9243 127.203 27.9243 127.122 27.9243C127.203 27.9243 127.122 27.9243 127.122 27.9243Z" fill="white"/>
<path d="M129.906 27.7256C129.825 27.7256 129.624 27.7256 129.503 27.7256H129.422C129.139 28.2029 128.938 28.72 128.615 29.1974C128.534 29.3963 128.413 29.6747 128.211 29.8736V27.8051C128.211 27.8051 128.211 27.8051 128.211 27.7256C128.211 27.7256 128.211 27.7256 128.131 27.7256C128.05 27.7256 127.848 27.7256 127.727 27.7256C127.606 27.7256 127.647 27.7256 127.647 27.8051V30.9079C127.647 30.9079 127.647 30.9079 127.647 30.9874C127.647 30.9874 127.647 30.9874 127.727 30.9874C127.808 30.9874 128.01 30.9874 128.131 30.9874C128.131 30.9874 128.211 30.9874 128.211 30.9079C128.494 30.4305 128.817 29.8338 129.099 29.3565L129.382 28.7598V30.9079C129.382 30.9079 129.382 30.9079 129.382 30.9874C129.382 30.9874 129.382 30.9874 129.462 30.9874H129.866C129.866 30.9874 129.946 30.9874 129.946 30.9079C129.987 29.8736 129.987 28.8792 129.906 27.7256C129.987 27.8051 129.987 27.8051 129.906 27.7256C129.987 27.7256 129.906 27.7256 129.906 27.7256Z" fill="white"/>
<path d="M128.211 27.5266C128.292 27.6062 128.292 27.6062 128.413 27.7255C128.494 27.7255 128.615 27.7255 128.696 27.7255H128.776C128.857 27.7255 129.059 27.7255 129.059 27.646C129.139 27.646 129.26 27.5664 129.26 27.4471C129.341 27.3675 129.341 27.3675 129.341 27.2482C129.341 27.1686 129.341 27.1686 129.422 27.0493V26.9697C129.422 26.9697 129.422 26.9697 129.341 26.9697C129.26 26.9697 129.139 26.9697 129.059 26.9697C128.978 26.9697 128.978 26.9697 128.978 27.0493C128.978 27.0493 128.978 27.0493 128.978 27.1288C128.978 27.1288 128.978 27.1288 128.978 27.2084C128.978 27.2084 128.978 27.2084 128.897 27.288H128.817H128.736C128.736 27.288 128.655 27.288 128.655 27.2084C128.655 27.2084 128.655 27.2084 128.655 27.1288C128.655 27.1288 128.655 27.1288 128.655 27.0493C128.655 27.0493 128.655 26.9697 128.575 26.9697C128.494 26.9697 128.373 26.9697 128.292 26.9697C128.292 26.9697 128.211 26.9697 128.211 27.0493C128.211 27.1288 128.211 27.1288 128.211 27.2482C128.09 27.4073 128.211 27.5266 128.211 27.5266Z" fill="white"/>
<path d="M132.972 27.7256C132.69 27.7256 132.286 27.7256 131.964 27.7256H131.883C131.883 27.7256 131.883 27.7256 131.883 27.8051V30.9079C131.883 30.9874 131.883 30.9874 131.964 30.9874C132.044 30.9874 132.246 30.9874 132.367 30.9874C132.367 30.9874 132.367 30.9874 132.448 30.9874C132.448 30.9874 132.448 30.9874 132.448 30.9079V29.7543C132.65 29.7543 132.73 29.7543 132.932 29.7543C133.134 29.7543 133.336 29.7543 133.416 29.6747C133.497 29.5952 133.699 29.5952 133.699 29.4758C133.779 29.3963 133.9 29.2769 133.9 29.1974C133.9 29.1178 133.981 28.9985 133.981 28.7996C133.981 28.5212 133.9 28.2029 133.699 28.004C133.537 27.9245 133.336 27.8051 132.972 27.7256ZM132.448 28.2825C132.65 28.2825 132.73 28.2825 132.932 28.2825C133.134 28.2825 133.214 28.362 133.336 28.362C133.416 28.4416 133.416 28.5609 133.416 28.7598C133.416 28.8394 133.416 28.8394 133.416 28.9587C133.416 29.0383 133.416 29.0383 133.336 29.0383L133.255 29.1178C133.174 29.1178 133.174 29.1178 133.053 29.1178C132.851 29.1178 132.771 29.1178 132.569 29.1178V28.2427C132.569 28.2825 132.448 28.2825 132.448 28.2825Z" fill="white"/>
<path d="M136.321 28.2823C136.24 28.2028 136.119 28.0834 136.039 28.0039C135.958 27.9243 135.756 27.9243 135.555 27.9243C135.353 27.9243 135.151 27.9243 135.07 28.0039C134.99 28.0834 134.788 28.0834 134.788 28.2028C134.707 28.2823 134.586 28.4017 134.586 28.4812C134.586 28.5608 134.506 28.6801 134.506 28.879V30.1519C134.506 30.2315 134.506 30.4304 134.586 30.5497C134.586 30.6292 134.667 30.8281 134.788 30.9475C134.869 31.027 134.99 31.1464 135.07 31.2259C135.151 31.3055 135.353 31.3055 135.555 31.3055H135.635C135.716 31.3055 135.837 31.3055 135.918 31.3055C135.998 31.3055 136.2 31.2259 136.321 31.1066C136.402 31.027 136.523 30.9077 136.523 30.8281C136.604 30.7486 136.604 30.5497 136.604 30.4304V28.9586C136.604 28.879 136.604 28.6801 136.523 28.5608C136.402 28.4812 136.402 28.4017 136.321 28.2823ZM135.918 28.9586V30.311C135.918 30.3906 135.918 30.3906 135.918 30.5099C135.918 30.5895 135.837 30.5895 135.837 30.5895L135.756 30.669C135.676 30.669 135.676 30.669 135.555 30.669C135.434 30.669 135.353 30.669 135.353 30.5895C135.272 30.5895 135.272 30.5099 135.151 30.5099C135.151 30.4304 135.07 30.4304 135.07 30.311C135.07 30.2315 135.07 30.1121 135.07 30.1121V28.8392C135.07 28.7597 135.07 28.7597 135.07 28.6403C135.07 28.5608 135.07 28.5608 135.151 28.4414L135.232 28.3619C135.232 28.3619 135.312 28.3619 135.434 28.3619C135.434 28.3619 135.434 28.3619 135.514 28.3619C135.595 28.3619 135.716 28.3619 135.716 28.4414C135.797 28.4414 135.797 28.521 135.918 28.6403C135.918 28.7994 136.039 28.7994 135.918 28.9586C135.918 28.879 135.918 28.9586 135.918 28.9586Z" fill="white"/>
<path d="M137.693 28.9587C137.693 28.8791 137.693 28.8791 137.693 28.9587L137.895 28.7598C137.975 28.7598 137.975 28.7598 138.096 28.7598C138.218 28.7598 138.298 28.8394 138.379 28.8394C138.46 28.9189 138.46 29.0383 138.581 29.1178L138.661 29.1974C138.742 29.1974 138.944 29.1178 139.065 29.1178C139.065 29.1178 139.065 29.1178 139.146 29.1178C139.146 29.1178 139.146 29.1178 139.146 29.0383C139.065 28.8394 138.944 28.6405 138.742 28.5609C138.54 28.4814 138.339 28.362 138.137 28.2825C137.935 28.2825 137.854 28.2825 137.653 28.2825C137.572 28.2825 137.37 28.362 137.249 28.4814C137.168 28.5609 137.047 28.6803 137.047 28.7598C137.047 28.8394 136.967 29.0383 136.967 29.1576V30.4305C136.967 30.6294 136.967 30.709 137.047 30.8283C137.128 30.9078 137.128 31.1067 137.249 31.2261C137.33 31.3056 137.451 31.425 137.532 31.5045C137.612 31.5841 137.814 31.5841 137.935 31.5841C138.056 31.5841 138.016 31.5841 138.137 31.5841C138.339 31.5841 138.419 31.5841 138.54 31.5045C138.742 31.425 138.823 31.3056 138.944 31.0272V30.9476L138.54 30.7487H138.46C138.46 30.7487 138.46 30.7487 138.379 30.8283C138.379 30.9078 138.298 31.0272 138.298 31.0272C138.218 31.0272 138.096 31.1067 138.016 31.0272C137.935 31.0272 137.814 31.0272 137.814 30.9476C137.733 30.9476 137.733 30.8681 137.612 30.8681C137.612 30.7885 137.532 30.7885 137.532 30.6692C137.532 30.5896 137.532 30.5896 137.532 30.4703V29.1178C137.612 29.078 137.612 28.9587 137.693 28.9587Z" fill="white"/>
<path d="M140.195 29.3564C140.195 29.2769 140.195 29.2769 140.195 29.3564L140.396 29.1575C140.477 29.1575 140.477 29.1575 140.598 29.1575C140.679 29.1575 140.8 29.2371 140.88 29.3564C140.961 29.436 140.961 29.5553 141.082 29.6349L141.163 29.7144L141.566 29.6349H141.647V29.5553C141.566 29.3564 141.445 29.1575 141.244 28.9586C141.042 28.7597 140.84 28.6802 140.638 28.6802C140.437 28.6802 140.356 28.6802 140.154 28.6802C140.073 28.6802 139.872 28.7597 139.751 28.8791C139.67 28.9586 139.549 29.078 139.549 29.1575C139.549 29.2371 139.468 29.436 139.468 29.5553V30.8282C139.468 31.0271 139.468 31.1067 139.549 31.226C139.63 31.3453 139.63 31.5044 139.751 31.6238C139.831 31.7033 139.952 31.8227 140.033 31.9022C140.114 31.9818 140.316 31.9818 140.437 32.1011C140.517 32.1011 140.638 32.1011 140.719 32.1011C140.8 32.1011 141.001 32.1011 141.123 32.0216C141.324 31.942 141.405 31.8227 141.526 31.6238V31.5442C141.445 31.4647 141.244 31.4647 141.123 31.3453H141.042C141.042 31.3453 141.042 31.3453 140.961 31.4249C140.961 31.5044 140.88 31.6238 140.88 31.6238C140.8 31.6238 140.679 31.6238 140.598 31.6238C140.517 31.6238 140.396 31.6238 140.396 31.5442C140.316 31.5442 140.316 31.4647 140.195 31.4647C140.195 31.3851 140.114 31.3851 140.114 31.2658C140.114 31.1862 140.114 31.1862 140.114 31.0669V29.7144C140.195 29.4757 140.195 29.3564 140.195 29.3564Z" fill="white"/>
<path d="M143.947 29.3565C143.543 29.7543 143.342 30.1521 143.059 30.6295L142.777 31.2261V29.1576C142.777 29.1576 142.777 29.0781 142.696 29.0781C142.615 29.0781 142.414 28.9985 142.293 28.9985H142.212C142.212 28.9985 142.212 28.9985 142.212 29.0781V32.1808C142.212 32.1808 142.212 32.2604 142.293 32.2604C142.373 32.2604 142.575 32.3399 142.696 32.3399H142.777C143.059 31.9421 143.382 31.4648 143.584 31.067L143.866 30.5897V32.6582C143.866 32.6582 143.866 32.7377 143.947 32.7377C144.027 32.7377 144.229 32.8173 144.35 32.8173C144.35 32.8173 144.35 32.8173 144.431 32.8173C144.431 32.8173 144.431 32.8173 144.431 32.7377V29.635C144.431 29.635 144.431 29.5554 144.35 29.5554C144.149 29.4759 144.027 29.3565 143.947 29.3565Z" fill="white"/>
<path d="M147.215 30.3508C147.134 30.3508 146.932 30.2713 146.811 30.2713H146.731C146.448 30.6691 146.247 31.0669 145.924 31.4249L145.641 32.0215V29.9531C145.641 29.9531 145.641 29.8735 145.561 29.8735L145.157 29.7939H145.077C145.077 29.7939 145.077 29.7939 145.077 29.8735V32.8967C145.077 32.8967 145.077 32.9762 145.157 32.9762C145.238 32.9762 145.44 33.0558 145.561 33.0558H145.641C145.924 32.658 146.126 32.1807 146.448 31.7829L146.731 31.3055V33.374C146.731 33.374 146.731 33.4536 146.811 33.4536C146.892 33.4536 147.094 33.5331 147.215 33.5331C147.215 33.5331 147.215 33.5331 147.296 33.5331C147.296 33.5331 147.296 33.5331 147.296 33.4536L147.215 30.3508C147.215 30.4304 147.215 30.3508 147.215 30.3508Z" fill="white"/>
</g>
<g clip-path="url(#clip1_122_43)">
<path d="M36.7953 11.6268H36.4266C24.2983 11.6268 11.9242 10.7049 -0.0402374 8.94121V32.9917C12.8256 30.9474 25.1997 29.9453 36.4266 29.9052H36.7544C49.0465 29.9052 61.7485 30.8672 73.6719 32.7111V8.90112C61.5436 10.7049 49.1285 11.6268 36.7953 11.6268Z" fill="white"/>
<path d="M36.8764 68.6667C23.9287 68.6667 13.3984 58.365 13.3984 45.6985C13.3984 41.7301 14.4227 37.842 16.4305 34.4348L17.127 34.8357C15.2012 38.1226 14.2179 41.8905 14.2179 45.7385C14.2179 57.9642 24.3794 67.9051 36.8764 67.9051C49.3735 67.9051 59.535 57.9642 59.535 45.7385C59.535 41.9305 58.5107 38.1626 56.6259 34.8757L57.3224 34.4749C59.2892 37.882 60.3545 41.8103 60.3545 45.7385C60.3545 58.365 49.8242 68.6667 36.8764 68.6667Z" fill="white"/>
<path d="M36.8765 58.1245C29.87 58.1245 24.1746 52.5528 24.1746 45.6984C24.1746 43.4136 24.8302 41.1689 26.0184 39.2449L26.715 39.6457C25.5677 41.4495 24.9941 43.574 24.9941 45.6984C24.9941 52.1119 30.3207 57.3228 36.8765 57.3228C43.4323 57.3228 48.7589 52.1119 48.7589 45.6984C48.7589 43.2132 47.9804 40.8483 46.4644 38.844L47.12 38.363C48.718 40.4875 49.5784 43.0529 49.5784 45.6984C49.5784 52.5528 43.883 58.1245 36.8765 58.1245Z" fill="white"/>
<path d="M22.0029 41.4495L21.1424 41.1289L21.9619 39.1246L21.1015 38.804C21.0605 39.0846 20.9376 39.3651 20.8147 39.6457C20.4049 40.6879 19.6674 41.0487 18.766 40.728C17.9465 40.4073 17.6597 39.6057 18.0694 38.5635C18.2743 38.0424 18.6021 37.2808 18.8069 36.8398L23.1502 38.5234L22.0029 41.4495ZM19.3396 38.1225C19.2576 38.2428 19.1347 38.4833 19.0528 38.7238C18.8479 39.2449 18.9299 39.6057 19.2576 39.766C19.5445 39.8862 19.8723 39.6457 20.0771 39.1246C20.1591 38.9242 20.241 38.6837 20.282 38.4833L19.3396 38.1225Z" fill="white"/>
<path d="M21.3883 46.0191L20.4459 45.9389L20.6098 43.8144L19.6674 43.7343L19.5035 45.6583L18.6021 45.5781L18.766 43.6541L17.8236 43.5739L17.6187 45.7786L16.6763 45.6984L16.9631 42.5317L21.6341 42.9326L21.3883 46.0191Z" fill="white"/>
<path d="M20.6917 47.1814C21.2654 47.4219 21.7161 48.0232 21.839 48.7447C22.0439 49.7869 21.7161 50.5485 20.9376 50.7088C20.4869 50.789 20.1181 50.6687 19.8313 50.348C19.7493 50.8291 19.4216 51.1898 18.8889 51.27C18.0284 51.4303 17.3319 50.8291 17.086 49.7468C16.9221 48.9852 17.0451 48.1835 17.4138 47.7025L18.3153 48.1434C18.0284 48.5843 17.9055 49.0654 17.9875 49.5063C18.1104 50.0274 18.3562 50.308 18.684 50.2278C19.0528 50.1476 19.1347 49.8269 19.0118 49.2257L18.8479 48.4641L19.7084 48.3038L19.8723 49.0654C19.9952 49.5464 20.2001 49.7869 20.5688 49.7067C20.8966 49.6265 21.0195 49.3459 20.9376 48.905C20.8556 48.4641 20.5688 48.1434 20.0362 47.943L20.6917 47.1814Z" fill="white"/>
<path d="M20.6098 55.6393L19.6674 53.9958L18.6431 54.1561L18.1104 53.2342L23.0682 52.5127L23.6828 53.5549L20.4459 57.3228L19.9132 56.3608L20.6098 55.6393ZM20.6098 53.8756L21.2244 54.9578L22.4127 53.595L20.6098 53.8756Z" fill="white"/>
<path d="M26.7559 57.0822L24.7482 61.5316L23.9287 60.77L25.5267 57.443L22.2078 59.1666L21.3883 58.405L25.8545 56.2405L26.7559 57.0822Z" fill="white"/>
<path d="M29.4192 58.886L28.5997 60.5295L29.0914 60.77L31.0172 59.6476L32.0415 60.1286L29.706 61.4514L30.0748 64.2573L29.0094 63.7362L28.7636 61.5717L28.2309 61.3312L27.4115 62.9746L26.4691 62.5337L28.5587 58.405L29.4192 58.886Z" fill="white"/>
<path d="M36.8355 63.215C36.6306 64.6179 35.5243 65.4597 34.1312 65.2593C32.7381 65.0589 31.8776 63.9766 32.0825 62.5736C32.2874 61.1707 33.3936 60.3289 34.7868 60.5293C36.1799 60.7298 37.0403 61.812 36.8355 63.215ZM33.1478 62.734C33.0249 63.5357 33.5166 64.177 34.2541 64.2973C35.0326 64.4175 35.6472 63.8964 35.7701 63.0947C35.8931 62.293 35.4014 61.6116 34.6638 61.5315C33.8853 61.4112 33.2707 61.9323 33.1478 62.734Z" fill="white"/>
<path d="M40.8919 60.3289L41.0558 61.2508L39.3349 61.5314L39.9495 65.139L38.9251 65.2993L38.1466 60.7698L40.8919 60.3289Z" fill="white"/>
<path d="M46.6693 60.3691C47.2839 61.6117 46.7922 62.9345 45.563 63.5357C44.2928 64.137 42.9406 63.656 42.367 62.3733C41.7524 61.0906 42.2031 59.8079 43.4733 59.2066C44.7025 58.6454 46.0546 59.0864 46.6693 60.3691ZM43.3094 61.9323C43.6782 62.6539 44.4157 62.9745 45.1122 62.6539C45.8088 62.3332 46.0546 61.5716 45.6859 60.8501C45.3171 60.1286 44.5796 59.8079 43.883 60.1286C43.1865 60.4492 42.9406 61.2108 43.3094 61.9323Z" fill="white"/>
<path d="M48.0623 56.04L52.5285 58.2046L51.709 58.9662L48.3901 57.2426L50.0291 60.5695L49.2096 61.3311L47.2019 56.8818L48.0623 56.04Z" fill="white"/>
<path d="M50.0291 53.5549L51.2993 54.2363C51.3812 54.0359 51.4632 53.8355 51.5451 53.6751C52.0778 52.7131 52.9383 52.4325 53.7987 52.9135C54.7411 53.4346 54.946 54.4367 54.3723 55.4388C54.2084 55.7595 53.9626 56.1203 53.6348 56.6414L49.5374 54.3967L50.0291 53.5549ZM53.307 55.3186C53.4299 55.1983 53.4709 55.1182 53.5529 54.9979C53.8397 54.5169 53.7577 54.076 53.348 53.8756C52.9383 53.6751 52.5695 53.7954 52.2827 54.2764C52.2007 54.3967 52.1597 54.5169 52.1188 54.6772L53.307 55.3186Z" fill="white"/>
<path d="M51.75 49.6664L53.5119 50.0272L53.8807 48.2635L52.1188 47.9027L52.3237 46.9006L56.9127 47.8627L56.7079 48.8648L54.8231 48.4639L54.4543 50.2276L56.3391 50.6285L56.1342 51.6306L51.5452 50.6685L51.75 49.6664Z" fill="white"/>
<path d="M54.1674 41.0484C55.6015 40.848 56.7078 41.6898 56.9127 43.0526C57.1176 44.4155 56.2162 45.4978 54.823 45.6982C53.3889 45.8986 52.2826 45.0568 52.0778 43.694C51.8729 42.3311 52.7334 41.2489 54.1674 41.0484ZM54.6591 44.656C55.4786 44.5357 56.0113 43.9345 55.8884 43.1729C55.8064 42.4113 55.1099 41.9704 54.2904 42.0906C53.4709 42.2109 52.9382 42.8121 53.0612 43.5737C53.1841 44.3353 53.8397 44.7763 54.6591 44.656Z" fill="white"/>
<path d="M50.0291 37.6815L50.8895 37.2807L51.8319 39.2047L52.6924 38.8039L51.8319 37.0402L52.6514 36.6393L53.5119 38.403L54.3723 38.0022L53.3889 36.038L54.2494 35.6372L55.6835 38.5233L51.4632 40.5275L50.0291 37.6815Z" fill="white"/>
<path d="M36.7945 12.3483H36.4258C24.2975 12.3483 11.9234 11.5065 -0.0410309 9.86308V32.0296C12.8248 30.1457 25.1989 29.1836 36.4258 29.1836H36.7536C49.0457 29.1836 61.7477 30.0655 73.6711 31.7891V9.823C61.5428 11.5065 49.1277 12.3483 36.7945 12.3483Z" fill="#002554"/>
<path d="M5.40848 25.0148L5.81822 24.7342C5.81822 24.7342 6.4738 24.2532 6.59672 23.6519L8.07178 17.7595C8.15373 17.3988 8.07178 16.8376 7.53912 16.4368H14.9554C14.9554 16.4368 14.1769 18.1604 13.8491 18.8017C13.5213 18 12.9887 17.519 11.7594 17.519H10.2434L9.6288 19.7637L9.91561 19.7237C10.2844 19.6836 10.6941 19.6435 11.0629 19.6435C13.8081 19.6435 14.095 21.1667 14.095 21.8481C14.095 23.4114 12.415 25.0148 9.21906 25.0148H5.40848ZM8.64542 23.8924C8.68639 23.9325 8.89126 23.9726 9.58782 23.9726C11.0629 23.9726 12.0053 23.1308 12.0053 21.808C12.0053 20.8861 11.2268 20.6857 10.5712 20.6857C10.1205 20.6857 9.71074 20.7258 9.42393 20.846H9.38295L8.64542 23.7722C8.64542 23.8523 8.64542 23.8523 8.64542 23.8924Z" fill="white"/>
<path d="M19.0938 25.0148C19.0938 25.0148 19.7493 24.4937 19.7903 23.692L19.8313 22.6899H16.7992C16.7992 22.6899 16.2666 23.4114 16.0207 23.7722C15.7749 24.1329 15.9388 24.7342 16.3075 24.9747H13.1935L13.4803 24.6941C13.4803 24.6941 14.4227 23.7722 14.6686 23.4916L19.2986 17.5992C19.3806 17.479 19.3806 17.3587 19.3806 17.1984C19.2986 16.7574 18.684 16.4368 18.684 16.4368H21.3064C21.5522 16.4368 21.7571 16.5169 21.88 16.6372C22.0029 16.7975 22.0029 16.9579 22.0029 16.9579L21.88 23.6118C21.921 24.5338 22.5356 24.9747 22.5356 24.9747L19.0938 25.0148ZM19.8723 21.6878L20.0362 18.4009L17.5777 21.6878H19.8723Z" fill="white"/>
<path d="M64.7388 25.0147C64.7388 25.0147 65.3944 24.4936 65.4353 23.692L65.4763 22.6898H62.5262C62.5262 22.6898 62.0345 23.4114 61.7477 23.7721C61.5018 24.1329 61.6657 24.7341 62.0345 24.9746H58.9205L59.2073 24.6941C59.2073 24.6941 60.1497 23.7721 60.3546 23.4915L64.7388 17.8397C65.0256 17.4388 64.7798 16.7574 64.2881 16.4768C64.8207 16.4768 66.9104 16.4768 66.9104 16.4768C67.1562 16.4768 67.3611 16.557 67.484 16.6772C67.607 16.8376 67.607 16.9979 67.607 16.9979L67.484 23.6519C67.525 24.5738 68.3445 25.0147 68.3445 25.0147H64.7388ZM65.4763 21.6877L65.6402 18.4008L63.2637 21.6877H65.4763Z" fill="white"/>
<path d="M23.7238 25.0949C23.396 25.0949 23.1092 24.9746 23.1092 24.9746V24.9346C23.1092 24.9346 22.7814 24.5337 22.7814 24.0527C22.7814 23.5316 23.1092 23.0907 23.1502 23.0907L23.2321 22.9704L23.3551 23.0506C23.3551 23.0506 23.6829 23.251 24.2565 23.251C24.2975 23.251 24.3384 23.251 24.3794 23.251C25.035 23.2109 25.6906 22.2489 26.4281 20.1645C26.592 19.6835 26.9198 18.4008 26.9198 17.7996C26.9198 17.038 25.9364 16.4768 25.9364 16.4768H32.1645C32.2874 16.4768 32.4513 16.557 32.5332 16.6371C32.6152 16.7574 32.6561 16.8776 32.6152 16.9979L30.9352 23.732C30.8943 23.8122 30.8943 23.8924 30.8943 23.9325C30.7713 24.7742 31.4679 25.0548 31.4679 25.0548C31.4679 25.0548 28.3539 25.0548 27.7393 25.0548C28.149 24.7742 28.6817 24.2531 28.8865 23.6519L30.4026 17.5992H28.3949C28.3539 17.7194 28.19 18.4409 28.149 18.5612C28.0261 19.0021 27.8622 19.7236 27.4934 20.7658C27.0427 22.0084 26.4691 23.1308 25.7316 24.0126C24.9531 24.9346 24.2155 25.0949 23.7238 25.0949Z" fill="white"/>
<path d="M33.5985 25.0148L34.1722 24.6941C34.2132 24.654 34.5 24.4135 34.7458 24.0928C34.8278 23.9726 34.9097 23.8122 34.9507 23.6519C34.9507 23.6519 36.4667 17.5992 36.4667 17.519H36.1389C35.4014 17.519 34.9917 17.7996 34.7868 17.96C34.2541 18.3608 33.8444 19.1224 33.8444 19.1224L33.3937 16.4368H41.7524L40.5641 19.2427C40.5641 19.2427 40.5231 18.4009 40.0315 17.8798C39.7037 17.5591 39.2939 17.519 38.5564 17.519L36.9584 23.7321C36.9584 23.7722 36.9584 23.8523 36.9174 23.8924C36.8765 24.5738 37.3681 24.8945 37.532 25.0148H33.5985Z" fill="white"/>
<path d="M45.7268 25.0148C45.7268 25.0148 46.4233 24.4937 46.6692 23.6519L47.6526 19.6836L43.3503 23.5717V23.6118V23.692C43.3093 23.7722 43.3093 23.8523 43.3093 23.8924C43.3093 23.9325 43.3093 23.9325 43.3093 23.9726C43.3913 24.7342 43.9649 25.0148 43.9649 25.0148H40.3592C40.3592 25.0148 41.0148 24.5738 41.2606 23.6519L42.7357 17.7595C42.9406 17.038 42.4079 16.4368 42.4079 16.4368H44.5795C44.7024 16.4368 44.8663 16.5169 44.9483 16.5971C45.0302 16.7174 45.0712 16.8376 45.0302 16.9579L43.842 21.768L48.1442 17.8397V17.7595C48.3491 16.9178 47.6526 16.4368 47.6526 16.4368H50.029C50.152 16.4368 50.3159 16.5169 50.3978 16.5971C50.4798 16.7174 50.5207 16.8376 50.4798 16.9579L48.7998 23.7321C48.7589 23.8122 48.7589 23.8924 48.7589 23.9325C48.6769 24.6139 49.3735 25.0549 49.3735 25.0549L45.7268 25.0148Z" fill="white"/>
<path d="M51.2583 23.6519C51.75 21.6076 52.7333 17.7595 52.7333 17.6793C52.8563 17.038 52.2007 16.4768 52.2007 16.4768H54.6181C54.7411 16.4768 54.905 16.557 54.9869 16.6371C55.0689 16.7574 55.1098 16.8776 55.0689 16.9979L54.3313 19.884C54.823 19.6835 55.5605 19.3228 56.339 18.8418C57.1175 18.4008 57.7322 17.8397 57.7731 17.519C57.8551 17.0781 57.4863 16.7574 57.4863 16.7574L57.1995 16.4768H59.9038C60.1086 16.4768 60.2725 16.557 60.3545 16.7173C60.4364 16.8376 60.4364 16.9578 60.3545 17.0781C60.1496 17.4789 59.7809 17.9599 58.8385 18.6013C57.5273 19.5232 56.339 20.0844 55.8883 20.2848C56.2571 20.9662 57.6912 23.732 57.7731 23.8924C57.978 24.213 58.1829 24.5738 58.6336 25.0147C57.937 25.0147 55.9293 25.0147 55.2328 25.0147C55.6425 24.6139 55.5196 24.0126 55.3966 23.7721C54.782 22.6097 54.2904 21.5274 54.0035 20.9662C53.6757 22.2088 53.307 23.7721 53.266 23.9325C53.1841 24.6941 53.8396 25.0548 53.8396 25.0548H50.193C50.2749 25.0147 51.0124 24.5738 51.2583 23.6519Z" fill="white"/>
<path d="M34.9917 34.2743C32.5743 34.2743 31.2221 34.5548 29.87 35.9578H29.6241V31.5886C29.6241 31.5886 42.49 31.6287 45.2352 31.6287C41.0559 37.8818 38.3516 45.2573 37.696 53.7551C36.5487 53.7551 34.9098 53.7551 33.2708 53.7551C34.0083 45.7784 37.0404 38.7236 40.3593 34.2743C38.3516 34.2743 34.9917 34.2743 34.9917 34.2743Z" fill="white"/>
</g>
<path opacity="0.7" d="M47.626 85.4179C47.626 84.3499 47.797 83.5399 48.139 82.9879C48.481 82.4359 49.003 82.1599 49.705 82.1599C50.083 82.1599 50.404 82.2379 50.668 82.3939C50.932 82.5439 51.145 82.7599 51.307 83.0419C51.475 83.3239 51.598 83.6659 51.676 84.0679C51.754 84.4699 51.793 84.9199 51.793 85.4179C51.793 86.4859 51.619 87.2959 51.271 87.8479C50.929 88.3999 50.407 88.6759 49.705 88.6759C49.333 88.6759 49.015 88.6009 48.751 88.4509C48.487 88.2949 48.271 88.0759 48.103 87.7939C47.935 87.5119 47.812 87.1699 47.734 86.7679C47.662 86.3659 47.626 85.9159 47.626 85.4179ZM48.337 85.4179C48.337 85.7719 48.361 86.1079 48.409 86.4259C48.463 86.7439 48.544 87.0229 48.652 87.2629C48.76 87.5029 48.901 87.6949 49.075 87.8389C49.249 87.9829 49.459 88.0549 49.705 88.0549C50.155 88.0549 50.497 87.8389 50.731 87.4069C50.965 86.9749 51.082 86.3119 51.082 85.4179C51.082 85.0699 51.055 84.7369 51.001 84.4189C50.953 84.1009 50.875 83.8219 50.767 83.5819C50.659 83.3359 50.518 83.1409 50.344 82.9969C50.17 82.8529 49.957 82.7809 49.705 82.7809C49.261 82.7809 48.922 82.9969 48.688 83.4289C48.454 83.8609 48.337 84.5239 48.337 85.4179ZM54.3384 88.6039C54.2544 88.6399 54.1674 88.6609 54.0774 88.6669C53.9934 88.6729 53.9154 88.6759 53.8434 88.6759C53.3994 88.6759 53.0604 88.4899 52.8264 88.1179C52.5924 87.7399 52.4754 87.1399 52.4754 86.3179C52.4754 85.5199 52.6044 84.9349 52.8624 84.5629C53.1264 84.1849 53.5014 83.9959 53.9874 83.9959C54.1254 83.9959 54.2424 84.0079 54.3384 84.0319V82.2679H54.9684V84.0409C55.0524 84.0229 55.1274 84.0109 55.1934 84.0049C55.2654 83.9989 55.3314 83.9959 55.3914 83.9959C55.6314 83.9959 55.8414 84.0349 56.0214 84.1129C56.2014 84.1909 56.3514 84.3169 56.4714 84.4909C56.5914 84.6649 56.6814 84.8959 56.7414 85.1839C56.8014 85.4659 56.8314 85.8139 56.8314 86.2279C56.8314 87.0379 56.7024 87.6499 56.4444 88.0639C56.1924 88.4719 55.8324 88.6759 55.3644 88.6759C55.3164 88.6759 55.2504 88.6699 55.1664 88.6579C55.0824 88.6519 55.0164 88.6369 54.9684 88.6129V90.3679H54.3384V88.6039ZM55.2654 84.5539C55.2054 84.5539 55.1544 84.5569 55.1124 84.5629C55.0704 84.5629 55.0164 84.5749 54.9504 84.5989V88.0909C54.9984 88.1029 55.0494 88.1119 55.1034 88.1179C55.1634 88.1179 55.2294 88.1179 55.3014 88.1179C55.8894 88.1179 56.1834 87.4879 56.1834 86.2279C56.1834 85.6759 56.1144 85.2589 55.9764 84.9769C55.8444 84.6949 55.6074 84.5539 55.2654 84.5539ZM54.0054 88.1179C54.0654 88.1179 54.1224 88.1149 54.1764 88.1089C54.2304 88.1029 54.2904 88.0909 54.3564 88.0729V84.5899C54.2544 84.5659 54.1434 84.5539 54.0234 84.5539C53.7414 84.5539 53.5194 84.6919 53.3574 84.9679C53.2014 85.2379 53.1234 85.6879 53.1234 86.3179C53.1234 86.8699 53.1924 87.3079 53.3304 87.6319C53.4744 87.9559 53.6994 88.1179 54.0054 88.1179ZM59.8987 85.9759L59.9527 85.2919H59.9167L59.6017 86.0479L58.0807 88.5679H57.6577V84.0679H58.3057V86.7409L58.2517 87.3979H58.2877L58.5847 86.6599L60.1237 84.0679H60.5467V88.5679H59.8987V85.9759ZM64.9157 89.7109H64.4657L64.3577 88.5679H61.6127V84.0679H62.2607V87.9829H63.7457V84.0679H64.3937V87.9829H64.9157V89.7109ZM67.8352 85.9759L67.8892 85.2919H67.8532L67.5382 86.0479L66.0172 88.5679H65.5942V84.0679H66.2422V86.7409L66.1882 87.3979H66.2242L66.5212 86.6599L68.0602 84.0679H68.4832V88.5679H67.8352V85.9759ZM69.5043 84.3379C69.6783 84.2299 69.8883 84.1459 70.1343 84.0859C70.3863 84.0259 70.6503 83.9959 70.9263 83.9959C71.1783 83.9959 71.3793 84.0349 71.5293 84.1129C71.6853 84.1849 71.8053 84.2869 71.8893 84.4189C71.9793 84.5449 72.0363 84.6919 72.0603 84.8599C72.0903 85.0219 72.1053 85.1929 72.1053 85.3729C72.1053 85.7329 72.0963 86.0839 72.0783 86.4259C72.0663 86.7679 72.0603 87.0919 72.0603 87.3979C72.0603 87.6259 72.0663 87.8389 72.0783 88.0369C72.0963 88.2289 72.1263 88.4119 72.1683 88.5859H71.6733L71.5203 88.0549H71.4843C71.3943 88.2109 71.2623 88.3459 71.0883 88.4599C70.9143 88.5739 70.6803 88.6309 70.3863 88.6309C70.0623 88.6309 69.7953 88.5199 69.5853 88.2979C69.3813 88.0699 69.2793 87.7579 69.2793 87.3619C69.2793 87.1039 69.3213 86.8879 69.4053 86.7139C69.4953 86.5399 69.6183 86.3989 69.7743 86.2909C69.9363 86.1829 70.1253 86.1079 70.3413 86.0659C70.5633 86.0179 70.8093 85.9939 71.0793 85.9939C71.1393 85.9939 71.1993 85.9939 71.2593 85.9939C71.3193 85.9939 71.3823 85.9969 71.4483 86.0029C71.4663 85.8169 71.4753 85.6519 71.4753 85.5079C71.4753 85.1659 71.4243 84.9259 71.3223 84.7879C71.2203 84.6499 71.0343 84.5809 70.7643 84.5809C70.5963 84.5809 70.4133 84.6079 70.2153 84.6619C70.0173 84.7099 69.8523 84.7729 69.7203 84.8509L69.5043 84.3379ZM71.4573 86.5159C71.3973 86.5099 71.3373 86.5069 71.2773 86.5069C71.2173 86.5009 71.1573 86.4979 71.0973 86.4979C70.9533 86.4979 70.8123 86.5099 70.6743 86.5339C70.5363 86.5579 70.4133 86.5999 70.3053 86.6599C70.1973 86.7199 70.1103 86.8009 70.0443 86.9029C69.9843 87.0049 69.9543 87.1339 69.9543 87.2899C69.9543 87.5299 70.0113 87.7159 70.1253 87.8479C70.2453 87.9799 70.3983 88.0459 70.5843 88.0459C70.8363 88.0459 71.0313 87.9859 71.1693 87.8659C71.3073 87.7459 71.4033 87.6139 71.4573 87.4699V86.5159ZM75.1058 84.6529H74.1248C74.1068 85.1629 74.0828 85.6579 74.0528 86.1379C74.0228 86.6119 73.9688 87.0319 73.8908 87.3979C73.8188 87.7639 73.7138 88.0579 73.5758 88.2799C73.4378 88.4959 73.2548 88.6039 73.0268 88.6039C72.9248 88.6039 72.8378 88.5979 72.7658 88.5859C72.6938 88.5739 72.6278 88.5529 72.5678 88.5229L72.6668 87.9559C72.7928 87.9919 72.9038 87.9859 72.9998 87.9379C73.1018 87.8839 73.1888 87.7279 73.2608 87.4699C73.3328 87.2059 73.3898 86.8069 73.4318 86.2729C73.4798 85.7329 73.5128 84.9979 73.5308 84.0679H75.7538V88.5679H75.1058V84.6529ZM77.4658 87.9829C77.6458 88.0189 77.8108 88.0369 77.9608 88.0369C78.5248 88.0369 78.8068 87.7399 78.8068 87.1459C78.8068 86.8759 78.7408 86.6659 78.6088 86.5159C78.4768 86.3599 78.2668 86.2819 77.9788 86.2819C77.9008 86.2819 77.8168 86.2879 77.7268 86.2999C77.6368 86.3059 77.5498 86.3209 77.4658 86.3449V87.9829ZM77.4658 85.7869C77.5858 85.7629 77.6998 85.7479 77.8078 85.7419C77.9158 85.7299 78.0178 85.7239 78.1138 85.7239C78.3658 85.7239 78.5788 85.7599 78.7528 85.8319C78.9268 85.8979 79.0678 85.9909 79.1758 86.1109C79.2838 86.2309 79.3618 86.3749 79.4098 86.5429C79.4578 86.7049 79.4818 86.8789 79.4818 87.0649C79.4818 87.6109 79.3498 88.0069 79.0858 88.2529C78.8218 88.4989 78.4078 88.6219 77.8438 88.6219C77.4898 88.6219 77.1478 88.6039 76.8178 88.5679V84.0679H77.4658V85.7869ZM82.4154 86.5609H80.8584V88.5679H80.2104V84.0679H80.8584V85.9759H82.4154V84.0679H83.0634V88.5679H82.4154V86.5609ZM84.7607 87.9829C84.9407 88.0189 85.1057 88.0369 85.2557 88.0369C85.5437 88.0369 85.7447 87.9619 85.8587 87.8119C85.9727 87.6559 86.0297 87.4339 86.0297 87.1459C86.0297 86.8759 85.9727 86.6659 85.8587 86.5159C85.7507 86.3599 85.5557 86.2819 85.2737 86.2819C85.1957 86.2819 85.1117 86.2879 85.0217 86.2999C84.9317 86.3059 84.8447 86.3209 84.7607 86.3449V87.9829ZM84.7607 85.7869C84.8807 85.7629 84.9947 85.7479 85.1027 85.7419C85.2107 85.7299 85.3127 85.7239 85.4087 85.7239C85.6547 85.7239 85.8617 85.7599 86.0297 85.8319C86.1977 85.8979 86.3297 85.9909 86.4257 86.1109C86.5277 86.2309 86.5997 86.3749 86.6417 86.5429C86.6837 86.7049 86.7047 86.8789 86.7047 87.0649C86.7047 87.6109 86.5817 88.0069 86.3357 88.2529C86.0957 88.4989 85.6937 88.6219 85.1297 88.6219C84.7817 88.6219 84.4427 88.6039 84.1127 88.5679V84.0679H84.7607V85.7869ZM87.2447 84.0679H87.8927V88.5679H87.2447V84.0679ZM91.1965 85.9759L91.2505 85.2919H91.2145L90.8995 86.0479L89.3785 88.5679H88.9555V84.0679H89.6035V86.7409L89.5495 87.3979H89.5855L89.8825 86.6599L91.4215 84.0679H91.8445V88.5679H91.1965V85.9759ZM89.8375 82.2499C89.8675 82.5259 89.9395 82.7239 90.0535 82.8439C90.1735 82.9579 90.3115 83.0149 90.4675 83.0149C90.6235 83.0149 90.7585 82.9519 90.8725 82.8259C90.9925 82.6999 91.0675 82.5109 91.0975 82.2589L91.5925 82.4029C91.5445 82.7629 91.4125 83.0389 91.1965 83.2309C90.9865 83.4169 90.7375 83.5099 90.4495 83.5099C90.3115 83.5099 90.1765 83.4919 90.0445 83.4559C89.9185 83.4139 89.8015 83.3509 89.6935 83.2669C89.5915 83.1769 89.5045 83.0629 89.4325 82.9249C89.3605 82.7869 89.3125 82.6189 89.2885 82.4209L89.8375 82.2499ZM96.9778 84.6529H95.4658V88.5679H94.8178V84.0679H97.6258V88.5679H96.9778V84.6529ZM98.64 84.3379C98.814 84.2299 99.024 84.1459 99.27 84.0859C99.522 84.0259 99.786 83.9959 100.062 83.9959C100.314 83.9959 100.515 84.0349 100.665 84.1129C100.821 84.1849 100.941 84.2869 101.025 84.4189C101.115 84.5449 101.172 84.6919 101.196 84.8599C101.226 85.0219 101.241 85.1929 101.241 85.3729C101.241 85.7329 101.232 86.0839 101.214 86.4259C101.202 86.7679 101.196 87.0919 101.196 87.3979C101.196 87.6259 101.202 87.8389 101.214 88.0369C101.232 88.2289 101.262 88.4119 101.304 88.5859H100.809L100.656 88.0549H100.62C100.53 88.2109 100.398 88.3459 100.224 88.4599C100.05 88.5739 99.816 88.6309 99.522 88.6309C99.198 88.6309 98.931 88.5199 98.721 88.2979C98.517 88.0699 98.415 87.7579 98.415 87.3619C98.415 87.1039 98.457 86.8879 98.541 86.7139C98.631 86.5399 98.754 86.3989 98.91 86.2909C99.072 86.1829 99.261 86.1079 99.477 86.0659C99.699 86.0179 99.945 85.9939 100.215 85.9939C100.275 85.9939 100.335 85.9939 100.395 85.9939C100.455 85.9939 100.518 85.9969 100.584 86.0029C100.602 85.8169 100.611 85.6519 100.611 85.5079C100.611 85.1659 100.56 84.9259 100.458 84.7879C100.356 84.6499 100.17 84.5809 99.9 84.5809C99.732 84.5809 99.549 84.6079 99.351 84.6619C99.153 84.7099 98.988 84.7729 98.856 84.8509L98.64 84.3379ZM100.593 86.5159C100.533 86.5099 100.473 86.5069 100.413 86.5069C100.353 86.5009 100.293 86.4979 100.233 86.4979C100.089 86.4979 99.948 86.5099 99.81 86.5339C99.672 86.5579 99.549 86.5999 99.441 86.6599C99.333 86.7199 99.246 86.8009 99.18 86.9029C99.12 87.0049 99.09 87.1339 99.09 87.2899C99.09 87.5299 99.147 87.7159 99.261 87.8479C99.381 87.9799 99.534 88.0459 99.72 88.0459C99.972 88.0459 100.167 87.9859 100.305 87.8659C100.443 87.7459 100.539 87.6139 100.593 87.4699V86.5159ZM102.289 84.0679H102.748L102.847 84.5539H102.883C103.105 84.1579 103.453 83.9599 103.927 83.9599C104.401 83.9599 104.755 84.1369 104.989 84.4909C105.229 84.8449 105.349 85.4239 105.349 86.2279C105.349 86.6059 105.31 86.9479 105.232 87.2539C105.154 87.5539 105.043 87.8119 104.899 88.0279C104.755 88.2379 104.578 88.3999 104.368 88.5139C104.164 88.6219 103.936 88.6759 103.684 88.6759C103.51 88.6759 103.372 88.6639 103.27 88.6399C103.168 88.6219 103.057 88.5799 102.937 88.5139V90.3679H102.289V84.0679ZM102.937 87.8569C103.021 87.9289 103.114 87.9859 103.216 88.0279C103.324 88.0699 103.465 88.0909 103.639 88.0909C103.957 88.0909 104.209 87.9289 104.395 87.6049C104.581 87.2809 104.674 86.8189 104.674 86.2189C104.674 85.9669 104.656 85.7389 104.62 85.5349C104.59 85.3309 104.539 85.1569 104.467 85.0129C104.395 84.8629 104.302 84.7489 104.188 84.6709C104.08 84.5869 103.945 84.5449 103.783 84.5449C103.345 84.5449 103.063 84.8119 102.937 85.3459V87.8569ZM108.434 84.6529H107.327V88.5679H106.679V84.6529H105.572V84.0679H108.434V84.6529ZM111.182 86.5609H109.625V88.5679H108.977V84.0679H109.625V85.9759H111.182V84.0679H111.83V88.5679H111.182V86.5609ZM115.57 88.2619C115.426 88.3939 115.243 88.4959 115.021 88.5679C114.799 88.6399 114.565 88.6759 114.319 88.6759C114.037 88.6759 113.791 88.6219 113.581 88.5139C113.377 88.3999 113.206 88.2409 113.068 88.0369C112.936 87.8269 112.837 87.5779 112.771 87.2899C112.711 87.0019 112.681 86.6779 112.681 86.3179C112.681 85.5499 112.822 84.9649 113.104 84.5629C113.386 84.1609 113.785 83.9599 114.301 83.9599C114.469 83.9599 114.634 83.9809 114.796 84.0229C114.964 84.0649 115.114 84.1489 115.246 84.2749C115.378 84.4009 115.483 84.5779 115.561 84.8059C115.645 85.0339 115.687 85.3309 115.687 85.6969C115.687 85.7989 115.681 85.9099 115.669 86.0299C115.663 86.1439 115.654 86.2639 115.642 86.3899H113.356C113.356 86.6479 113.377 86.8819 113.419 87.0919C113.461 87.3019 113.527 87.4819 113.617 87.6319C113.707 87.7759 113.821 87.8899 113.959 87.9739C114.103 88.0519 114.28 88.0909 114.49 88.0909C114.652 88.0909 114.811 88.0609 114.967 88.0009C115.129 87.9409 115.252 87.8689 115.336 87.7849L115.57 88.2619ZM115.066 85.8499C115.078 85.3999 115.015 85.0699 114.877 84.8599C114.739 84.6499 114.55 84.5449 114.31 84.5449C114.034 84.5449 113.815 84.6499 113.653 84.8599C113.491 85.0699 113.395 85.3999 113.365 85.8499H115.066ZM116.597 84.0679H117.056L117.155 84.5539H117.191C117.413 84.1579 117.761 83.9599 118.235 83.9599C118.709 83.9599 119.063 84.1369 119.297 84.4909C119.537 84.8449 119.657 85.4239 119.657 86.2279C119.657 86.6059 119.618 86.9479 119.54 87.2539C119.462 87.5539 119.351 87.8119 119.207 88.0279C119.063 88.2379 118.886 88.3999 118.676 88.5139C118.472 88.6219 118.244 88.6759 117.992 88.6759C117.818 88.6759 117.68 88.6639 117.578 88.6399C117.476 88.6219 117.365 88.5799 117.245 88.5139V90.3679H116.597V84.0679ZM117.245 87.8569C117.329 87.9289 117.422 87.9859 117.524 88.0279C117.632 88.0699 117.773 88.0909 117.947 88.0909C118.265 88.0909 118.517 87.9289 118.703 87.6049C118.889 87.2809 118.982 86.8189 118.982 86.2189C118.982 85.9669 118.964 85.7389 118.928 85.5349C118.898 85.3309 118.847 85.1569 118.775 85.0129C118.703 84.8629 118.61 84.7489 118.496 84.6709C118.388 84.5869 118.253 84.5449 118.091 84.5449C117.653 84.5449 117.371 84.8119 117.245 85.3459V87.8569ZM44.9498 98.3429C44.7998 98.4569 44.6288 98.5409 44.4368 98.5949C44.2448 98.6489 44.0438 98.6759 43.8338 98.6759C43.5458 98.6759 43.3028 98.6219 43.1048 98.5139C42.9068 98.3999 42.7448 98.2409 42.6188 98.0369C42.4988 97.8269 42.4088 97.5779 42.3488 97.2899C42.2948 96.9959 42.2678 96.6719 42.2678 96.3179C42.2678 95.5499 42.4028 94.9649 42.6728 94.5629C42.9488 94.1609 43.3418 93.9599 43.8518 93.9599C44.0858 93.9599 44.2868 93.9809 44.4548 94.0229C44.6228 94.0649 44.7668 94.1189 44.8868 94.1849L44.7068 94.7519C44.4668 94.6139 44.2058 94.5449 43.9238 94.5449C43.5998 94.5449 43.3538 94.6889 43.1858 94.9769C43.0238 95.2589 42.9428 95.7059 42.9428 96.3179C42.9428 96.5639 42.9608 96.7949 42.9968 97.0109C43.0328 97.2269 43.0928 97.4159 43.1768 97.5779C43.2608 97.7339 43.3688 97.8599 43.5008 97.9559C43.6328 98.0459 43.7978 98.0909 43.9958 98.0909C44.1518 98.0909 44.2958 98.0639 44.4278 98.0099C44.5658 97.9559 44.6768 97.8929 44.7608 97.8209L44.9498 98.3429ZM46.0608 94.8329C46.2168 94.5509 46.3908 94.3559 46.5828 94.2479C46.7748 94.1399 47.0148 94.0859 47.3028 94.0859C47.7468 94.0859 48.0888 94.2599 48.3288 94.6079C48.5748 94.9559 48.6978 95.4929 48.6978 96.2189C48.6978 97.0529 48.5568 97.6709 48.2748 98.0729C47.9928 98.4749 47.5998 98.6759 47.0958 98.6759C46.8258 98.6759 46.5888 98.6249 46.3848 98.5229C46.1868 98.4149 46.0188 98.2499 45.8808 98.0279C45.7488 97.7999 45.6468 97.5059 45.5748 97.1459C45.5088 96.7859 45.4758 96.3509 45.4758 95.8409C45.4758 95.3249 45.4968 94.8839 45.5388 94.5179C45.5868 94.1519 45.6498 93.8429 45.7278 93.5909C45.8118 93.3389 45.9108 93.1379 46.0248 92.9879C46.1388 92.8379 46.2678 92.7209 46.4118 92.6369C46.5558 92.5469 46.7118 92.4839 46.8798 92.4479C47.0538 92.4119 47.2368 92.3819 47.4288 92.3579C47.6808 92.3279 47.8818 92.2919 48.0318 92.2499C48.1818 92.2079 48.3018 92.1359 48.3918 92.0339L48.4368 92.6729C48.3888 92.7209 48.3348 92.7629 48.2748 92.7989C48.2148 92.8289 48.1428 92.8559 48.0588 92.8799C47.9748 92.9039 47.8758 92.9249 47.7618 92.9429C47.6538 92.9549 47.5248 92.9669 47.3748 92.9789C47.1708 92.9969 46.9908 93.0359 46.8348 93.0959C46.6848 93.1559 46.5528 93.2549 46.4388 93.3929C46.3308 93.5249 46.2438 93.7079 46.1778 93.9419C46.1118 94.1759 46.0668 94.4729 46.0428 94.8329H46.0608ZM46.1508 96.3269C46.1508 96.5729 46.1688 96.8039 46.2048 97.0199C46.2408 97.2299 46.2978 97.4159 46.3758 97.5779C46.4538 97.7339 46.5498 97.8599 46.6638 97.9559C46.7838 98.0459 46.9248 98.0909 47.0868 98.0909C47.3988 98.0909 47.6328 97.9439 47.7888 97.6499C47.9448 97.3559 48.0228 96.8999 48.0228 96.2819C48.0228 95.7899 47.9568 95.3999 47.8248 95.1119C47.6928 94.8179 47.4768 94.6709 47.1768 94.6709C46.8228 94.6709 46.5618 94.8149 46.3938 95.1029C46.2318 95.3909 46.1508 95.7989 46.1508 96.3269ZM49.3605 96.3179C49.3605 95.5079 49.4985 94.9139 49.7745 94.5359C50.0565 94.1519 50.4555 93.9599 50.9715 93.9599C51.5235 93.9599 51.9285 94.1549 52.1865 94.5449C52.4505 94.9349 52.5825 95.5259 52.5825 96.3179C52.5825 97.1339 52.4415 97.7309 52.1595 98.1089C51.8775 98.4869 51.4815 98.6759 50.9715 98.6759C50.4195 98.6759 50.0115 98.4809 49.7475 98.0909C49.4895 97.7009 49.3605 97.1099 49.3605 96.3179ZM50.0355 96.3179C50.0355 96.5819 50.0505 96.8219 50.0805 97.0379C50.1165 97.2539 50.1705 97.4399 50.2425 97.5959C50.3205 97.7519 50.4195 97.8749 50.5395 97.9649C50.6595 98.0489 50.8035 98.0909 50.9715 98.0909C51.2835 98.0909 51.5175 97.9529 51.6735 97.6769C51.8295 97.3949 51.9075 96.9419 51.9075 96.3179C51.9075 96.0599 51.8895 95.8229 51.8535 95.6069C51.8235 95.3849 51.7695 95.1959 51.6915 95.0399C51.6195 94.8839 51.5235 94.7639 51.4035 94.6799C51.2835 94.5899 51.1395 94.5449 50.9715 94.5449C50.6655 94.5449 50.4315 94.6859 50.2695 94.9679C50.1135 95.2499 50.0355 95.6999 50.0355 96.3179ZM53.4433 94.0679H53.9023L54.0013 94.5539H54.0373C54.2593 94.1579 54.6073 93.9599 55.0813 93.9599C55.5553 93.9599 55.9093 94.1369 56.1433 94.4909C56.3833 94.8449 56.5033 95.4239 56.5033 96.2279C56.5033 96.6059 56.4643 96.9479 56.3863 97.2539C56.3083 97.5539 56.1973 97.8119 56.0533 98.0279C55.9093 98.2379 55.7323 98.3999 55.5223 98.5139C55.3183 98.6219 55.0903 98.6759 54.8383 98.6759C54.6643 98.6759 54.5263 98.6639 54.4243 98.6399C54.3223 98.6219 54.2113 98.5799 54.0913 98.5139V100.368H53.4433V94.0679ZM54.0913 97.8569C54.1753 97.9289 54.2683 97.9859 54.3703 98.0279C54.4783 98.0699 54.6193 98.0909 54.7933 98.0909C55.1113 98.0909 55.3633 97.9289 55.5493 97.6049C55.7353 97.2809 55.8283 96.8189 55.8283 96.2189C55.8283 95.9669 55.8103 95.7389 55.7743 95.5349C55.7443 95.3309 55.6933 95.1569 55.6213 95.0129C55.5493 94.8629 55.4563 94.7489 55.3423 94.6709C55.2343 94.5869 55.0993 94.5449 54.9373 94.5449C54.4993 94.5449 54.2173 94.8119 54.0913 95.3459V97.8569ZM59.5594 96.5609H58.0024V98.5679H57.3544V94.0679H58.0024V95.9759H59.5594V94.0679H60.2074V98.5679H59.5594V96.5609ZM61.0588 96.3179C61.0588 95.5079 61.1968 94.9139 61.4728 94.5359C61.7548 94.1519 62.1538 93.9599 62.6698 93.9599C63.2218 93.9599 63.6268 94.1549 63.8848 94.5449C64.1488 94.9349 64.2808 95.5259 64.2808 96.3179C64.2808 97.1339 64.1398 97.7309 63.8578 98.1089C63.5758 98.4869 63.1798 98.6759 62.6698 98.6759C62.1178 98.6759 61.7098 98.4809 61.4458 98.0909C61.1878 97.7009 61.0588 97.1099 61.0588 96.3179ZM61.7338 96.3179C61.7338 96.5819 61.7488 96.8219 61.7788 97.0379C61.8148 97.2539 61.8688 97.4399 61.9408 97.5959C62.0188 97.7519 62.1178 97.8749 62.2378 97.9649C62.3578 98.0489 62.5018 98.0909 62.6698 98.0909C62.9818 98.0909 63.2158 97.9529 63.3718 97.6769C63.5278 97.3949 63.6058 96.9419 63.6058 96.3179C63.6058 96.0599 63.5878 95.8229 63.5518 95.6069C63.5218 95.3849 63.4678 95.1959 63.3898 95.0399C63.3178 94.8839 63.2218 94.7639 63.1018 94.6799C62.9818 94.5899 62.8378 94.5449 62.6698 94.5449C62.3638 94.5449 62.1298 94.6859 61.9678 94.9679C61.8118 95.2499 61.7338 95.6999 61.7338 96.3179ZM67.3826 95.9759L67.4366 95.2919H67.4006L67.0856 96.0479L65.5646 98.5679H65.1416V94.0679H65.7896V96.7409L65.7356 97.3979H65.7716L66.0686 96.6599L67.6076 94.0679H68.0306V98.5679H67.3826V95.9759ZM66.0236 92.2499C66.0536 92.5259 66.1256 92.7239 66.2396 92.8439C66.3596 92.9579 66.4976 93.0149 66.6536 93.0149C66.8096 93.0149 66.9446 92.9519 67.0586 92.8259C67.1786 92.6999 67.2536 92.5109 67.2836 92.2589L67.7786 92.4029C67.7306 92.7629 67.5986 93.0389 67.3826 93.2309C67.1726 93.4169 66.9236 93.5099 66.6356 93.5099C66.4976 93.5099 66.3626 93.4919 66.2306 93.4559C66.1046 93.4139 65.9876 93.3509 65.8796 93.2669C65.7776 93.1769 65.6906 93.0629 65.6186 92.9249C65.5466 92.7869 65.4986 92.6189 65.4746 92.4209L66.0236 92.2499ZM71.0489 92.3309C71.2409 92.2769 71.4449 92.2409 71.6609 92.2229C71.8769 92.2049 72.0899 92.1959 72.2999 92.1959C72.5399 92.1959 72.7769 92.2229 73.0109 92.2769C73.2449 92.3309 73.4549 92.4299 73.6409 92.5739C73.8329 92.7179 73.9859 92.9159 74.0999 93.1679C74.2199 93.4199 74.2799 93.7409 74.2799 94.1309C74.2799 94.5089 74.2229 94.8299 74.1089 95.0939C74.0009 95.3579 73.8539 95.5739 73.6679 95.7419C73.4879 95.9039 73.2779 96.0239 73.0379 96.1019C72.8039 96.1739 72.5609 96.2099 72.3089 96.2099C72.2849 96.2099 72.2459 96.2099 72.1919 96.2099C72.1379 96.2099 72.0809 96.2099 72.0209 96.2099C71.9609 96.2039 71.9009 96.1979 71.8409 96.1919C71.7869 96.1859 71.7479 96.1799 71.7239 96.1739V98.5679H71.0489V92.3309ZM72.3359 92.8169C72.2159 92.8169 72.0989 92.8229 71.9849 92.8349C71.8769 92.8409 71.7899 92.8529 71.7239 92.8709V95.5529C71.7479 95.5649 71.7839 95.5739 71.8319 95.5799C71.8859 95.5799 71.9399 95.5829 71.9939 95.5889C72.0479 95.5889 72.0989 95.5889 72.1469 95.5889C72.2009 95.5889 72.2399 95.5889 72.2639 95.5889C72.4319 95.5889 72.5939 95.5679 72.7499 95.5259C72.9059 95.4839 73.0439 95.4089 73.1639 95.3009C73.2839 95.1869 73.3799 95.0369 73.4519 94.8509C73.5299 94.6589 73.5689 94.4189 73.5689 94.1309C73.5689 93.8789 73.5329 93.6689 73.4609 93.5009C73.3949 93.3329 73.3049 93.1979 73.1909 93.0959C73.0829 92.9939 72.9539 92.9219 72.8039 92.8799C72.6539 92.8379 72.4979 92.8169 72.3359 92.8169ZM74.6027 96.3179C74.6027 95.5079 74.7407 94.9139 75.0167 94.5359C75.2987 94.1519 75.6977 93.9599 76.2137 93.9599C76.7657 93.9599 77.1707 94.1549 77.4287 94.5449C77.6927 94.9349 77.8247 95.5259 77.8247 96.3179C77.8247 97.1339 77.6837 97.7309 77.4017 98.1089C77.1197 98.4869 76.7237 98.6759 76.2137 98.6759C75.6617 98.6759 75.2537 98.4809 74.9897 98.0909C74.7317 97.7009 74.6027 97.1099 74.6027 96.3179ZM75.2777 96.3179C75.2777 96.5819 75.2927 96.8219 75.3227 97.0379C75.3587 97.2539 75.4127 97.4399 75.4847 97.5959C75.5627 97.7519 75.6617 97.8749 75.7817 97.9649C75.9017 98.0489 76.0457 98.0909 76.2137 98.0909C76.5257 98.0909 76.7597 97.9529 76.9157 97.6769C77.0717 97.3949 77.1497 96.9419 77.1497 96.3179C77.1497 96.0599 77.1317 95.8229 77.0957 95.6069C77.0657 95.3849 77.0117 95.1959 76.9337 95.0399C76.8617 94.8839 76.7657 94.7639 76.6457 94.6799C76.5257 94.5899 76.3817 94.5449 76.2137 94.5449C75.9077 94.5449 75.6737 94.6859 75.5117 94.9679C75.3557 95.2499 75.2777 95.6999 75.2777 96.3179ZM81.1695 98.3429C81.0195 98.4569 80.8485 98.5409 80.6565 98.5949C80.4645 98.6489 80.2635 98.6759 80.0535 98.6759C79.7655 98.6759 79.5225 98.6219 79.3245 98.5139C79.1265 98.3999 78.9645 98.2409 78.8385 98.0369C78.7185 97.8269 78.6285 97.5779 78.5685 97.2899C78.5145 96.9959 78.4875 96.6719 78.4875 96.3179C78.4875 95.5499 78.6225 94.9649 78.8925 94.5629C79.1685 94.1609 79.5615 93.9599 80.0715 93.9599C80.3055 93.9599 80.5065 93.9809 80.6745 94.0229C80.8425 94.0649 80.9865 94.1189 81.1065 94.1849L80.9265 94.7519C80.6865 94.6139 80.4255 94.5449 80.1435 94.5449C79.8195 94.5449 79.5735 94.6889 79.4055 94.9769C79.2435 95.2589 79.1625 95.7059 79.1625 96.3179C79.1625 96.5639 79.1805 96.7949 79.2165 97.0109C79.2525 97.2269 79.3125 97.4159 79.3965 97.5779C79.4805 97.7339 79.5885 97.8599 79.7205 97.9559C79.8525 98.0459 80.0175 98.0909 80.2155 98.0909C80.3715 98.0909 80.5155 98.0639 80.6475 98.0099C80.7855 97.9559 80.8965 97.8929 80.9805 97.8209L81.1695 98.3429ZM84.2281 98.3429C84.0781 98.4569 83.9071 98.5409 83.7151 98.5949C83.5231 98.6489 83.3221 98.6759 83.1121 98.6759C82.8241 98.6759 82.5811 98.6219 82.3831 98.5139C82.1851 98.3999 82.0231 98.2409 81.8971 98.0369C81.7771 97.8269 81.6871 97.5779 81.6271 97.2899C81.5731 96.9959 81.5461 96.6719 81.5461 96.3179C81.5461 95.5499 81.6811 94.9649 81.9511 94.5629C82.2271 94.1609 82.6201 93.9599 83.1301 93.9599C83.3641 93.9599 83.5651 93.9809 83.7331 94.0229C83.9011 94.0649 84.0451 94.1189 84.1651 94.1849L83.9851 94.7519C83.7451 94.6139 83.4841 94.5449 83.2021 94.5449C82.8781 94.5449 82.6321 94.6889 82.4641 94.9769C82.3021 95.2589 82.2211 95.7059 82.2211 96.3179C82.2211 96.5639 82.2391 96.7949 82.2751 97.0109C82.3111 97.2269 82.3711 97.4159 82.4551 97.5779C82.5391 97.7339 82.6471 97.8599 82.7791 97.9559C82.9111 98.0459 83.0761 98.0909 83.2741 98.0909C83.4301 98.0909 83.5741 98.0639 83.7061 98.0099C83.8441 97.9559 83.9551 97.8929 84.0391 97.8209L84.2281 98.3429ZM87.1931 95.9759L87.2471 95.2919H87.2111L86.8961 96.0479L85.3751 98.5679H84.9521V94.0679H85.6001V96.7409L85.5461 97.3979H85.5821L85.8791 96.6599L87.4181 94.0679H87.8411V98.5679H87.1931V95.9759ZM91.1482 95.9759L91.2022 95.2919H91.1662L90.8512 96.0479L89.3302 98.5679H88.9072V94.0679H89.5552V96.7409L89.5012 97.3979H89.5372L89.8342 96.6599L91.3732 94.0679H91.7962V98.5679H91.1482V95.9759ZM96.9295 94.6529H95.4175V98.5679H94.7695V94.0679H97.5775V98.5679H96.9295V94.6529ZM98.4387 96.3179C98.4387 95.5079 98.5767 94.9139 98.8527 94.5359C99.1347 94.1519 99.5337 93.9599 100.05 93.9599C100.602 93.9599 101.007 94.1549 101.265 94.5449C101.529 94.9349 101.661 95.5259 101.661 96.3179C101.661 97.1339 101.52 97.7309 101.238 98.1089C100.956 98.4869 100.56 98.6759 100.05 98.6759C99.4977 98.6759 99.0897 98.4809 98.8257 98.0909C98.5677 97.7009 98.4387 97.1099 98.4387 96.3179ZM99.1137 96.3179C99.1137 96.5819 99.1287 96.8219 99.1587 97.0379C99.1947 97.2539 99.2487 97.4399 99.3207 97.5959C99.3987 97.7519 99.4977 97.8749 99.6177 97.9649C99.7377 98.0489 99.8817 98.0909 100.05 98.0909C100.362 98.0909 100.596 97.9529 100.752 97.6769C100.908 97.3949 100.986 96.9419 100.986 96.3179C100.986 96.0599 100.968 95.8229 100.932 95.6069C100.902 95.3849 100.848 95.1959 100.77 95.0399C100.698 94.8839 100.602 94.7639 100.482 94.6799C100.362 94.5899 100.218 94.5449 100.05 94.5449C99.7437 94.5449 99.5097 94.6859 99.3477 94.9679C99.1917 95.2499 99.1137 95.6999 99.1137 96.3179ZM105.347 96.2639L104.159 94.0679H104.933L105.599 95.3549L105.779 95.8589L105.968 95.3549L106.652 94.0679H107.363L106.166 96.2279L107.435 98.5679H106.697L105.941 97.1549L105.743 96.6149L105.536 97.1549L104.78 98.5679H104.069L105.347 96.2639ZM107.799 96.3179C107.799 95.5079 107.937 94.9139 108.213 94.5359C108.495 94.1519 108.894 93.9599 109.41 93.9599C109.962 93.9599 110.367 94.1549 110.625 94.5449C110.889 94.9349 111.021 95.5259 111.021 96.3179C111.021 97.1339 110.88 97.7309 110.598 98.1089C110.316 98.4869 109.92 98.6759 109.41 98.6759C108.858 98.6759 108.45 98.4809 108.186 98.0909C107.928 97.7009 107.799 97.1099 107.799 96.3179ZM108.474 96.3179C108.474 96.5819 108.489 96.8219 108.519 97.0379C108.555 97.2539 108.609 97.4399 108.681 97.5959C108.759 97.7519 108.858 97.8749 108.978 97.9649C109.098 98.0489 109.242 98.0909 109.41 98.0909C109.722 98.0909 109.956 97.9529 110.112 97.6769C110.268 97.3949 110.346 96.9419 110.346 96.3179C110.346 96.0599 110.328 95.8229 110.292 95.6069C110.262 95.3849 110.208 95.1959 110.13 95.0399C110.058 94.8839 109.962 94.7639 109.842 94.6799C109.722 94.5899 109.578 94.5449 109.41 94.5449C109.104 94.5449 108.87 94.6859 108.708 94.9679C108.552 95.2499 108.474 95.6999 108.474 96.3179ZM112.863 96.5429H112.53V98.5679H111.882V94.0679H112.53V96.1019L112.836 95.9759L113.934 94.0679H114.627L113.556 95.8769L113.241 96.1739L113.628 96.5339L114.78 98.5679H114.006L112.863 96.5429ZM116.343 96.5429H116.01V98.5679H115.362V94.0679H116.01V96.1019L116.316 95.9759L117.414 94.0679H118.107L117.036 95.8769L116.721 96.1739L117.108 96.5339L118.26 98.5679H117.486L116.343 96.5429ZM121.463 98.2619C121.319 98.3939 121.136 98.4959 120.914 98.5679C120.692 98.6399 120.458 98.6759 120.212 98.6759C119.93 98.6759 119.684 98.6219 119.474 98.5139C119.27 98.3999 119.099 98.2409 118.961 98.0369C118.829 97.8269 118.73 97.5779 118.664 97.2899C118.604 97.0019 118.574 96.6779 118.574 96.3179C118.574 95.5499 118.715 94.9649 118.997 94.5629C119.279 94.1609 119.678 93.9599 120.194 93.9599C120.362 93.9599 120.527 93.9809 120.689 94.0229C120.857 94.0649 121.007 94.1489 121.139 94.2749C121.271 94.4009 121.376 94.5779 121.454 94.8059C121.538 95.0339 121.58 95.3309 121.58 95.6969C121.58 95.7989 121.574 95.9099 121.562 96.0299C121.556 96.1439 121.547 96.2639 121.535 96.3899H119.249C119.249 96.6479 119.27 96.8819 119.312 97.0919C119.354 97.3019 119.42 97.4819 119.51 97.6319C119.6 97.7759 119.714 97.8899 119.852 97.9739C119.996 98.0519 120.173 98.0909 120.383 98.0909C120.545 98.0909 120.704 98.0609 120.86 98.0009C121.022 97.9409 121.145 97.8689 121.229 97.7849L121.463 98.2619ZM120.959 95.8499C120.971 95.3999 120.908 95.0699 120.77 94.8599C120.632 94.6499 120.443 94.5449 120.203 94.5449C119.927 94.5449 119.708 94.6499 119.546 94.8599C119.384 95.0699 119.288 95.3999 119.258 95.8499H120.959ZM125.352 98.6669C124.824 98.6669 124.446 98.4839 124.218 98.1179C123.99 97.7519 123.861 97.2269 123.831 96.5429H123.138V98.5679H122.49V94.0679H123.138V95.9579H123.84C123.882 95.2919 124.023 94.7939 124.263 94.4639C124.509 94.1339 124.875 93.9689 125.361 93.9689C125.895 93.9689 126.276 94.1759 126.504 94.5899C126.738 94.9979 126.855 95.5739 126.855 96.3179C126.855 97.1159 126.732 97.7069 126.486 98.0909C126.24 98.4749 125.862 98.6669 125.352 98.6669ZM124.47 96.3179C124.47 96.5579 124.482 96.7859 124.506 97.0019C124.536 97.2119 124.584 97.3979 124.65 97.5599C124.722 97.7219 124.815 97.8509 124.929 97.9469C125.043 98.0369 125.187 98.0819 125.361 98.0819C125.655 98.0819 125.865 97.9469 125.991 97.6769C126.117 97.4009 126.18 96.9479 126.18 96.3179C126.18 96.0599 126.165 95.8229 126.135 95.6069C126.111 95.3909 126.066 95.2049 126 95.0489C125.94 94.8929 125.856 94.7729 125.748 94.6889C125.646 94.5989 125.514 94.5539 125.352 94.5539C125.04 94.5539 124.815 94.7009 124.677 94.9949C124.539 95.2829 124.47 95.7239 124.47 96.3179Z" fill="white"/>
<defs>
<clipPath id="clip0_122_43">
<rect width="76.2963" height="77.5679" fill="white" transform="translate(92.8271)"/>
</clipPath>
<clipPath id="clip1_122_43">
<rect width="73.7531" height="59.7654" fill="white" transform="translate(-4.57764e-05 8.90112)"/>
</clipPath>
</defs>
</svg>
