<svg width="21" height="19" viewBox="0 0 21 19" fill="none" xmlns="http://www.w3.org/2000/svg">
<path d="M14.7854 2.16435C15.7636 2.16435 16.678 2.54258 17.3798 3.215C18.8045 4.62288 18.8045 6.9133 17.3798 8.32118L10.6387 14.9823L3.89758 8.34219C2.4728 6.93431 2.4728 4.64389 3.89758 3.23601C4.57807 2.56359 5.51374 2.18536 6.49194 2.18536C7.47014 2.18536 8.38455 2.56359 9.08631 3.23601L10.6387 4.76997L12.191 3.23601C12.8715 2.54258 13.8072 2.16435 14.7854 2.16435ZM14.7854 0C13.2756 0 11.787 0.567353 10.6387 1.68105C9.49035 0.54634 8.00178 0 6.49194 0C4.98211 0 3.49354 0.567353 2.34521 1.68105C0.0698255 3.92944 0.0698255 7.62775 2.34521 9.87614L10.6387 18.0712L18.9321 9.87614C21.2075 7.62775 21.2075 3.95046 18.9321 1.68105C17.7838 0.567353 16.274 0 14.7854 0Z" fill="white"/>
</svg>
